SplineFontDB: 3.2
FontName: Light
FullName: Fontoshan English Handwrite
FamilyName: Fontoshan English Handwrite
Weight: Light
Copyright: Copyright (c) 2023, Sky Production
UComments: "2023-12-19: Created with FontForge (http://fontforge.org)"
Version: 1.0
ItalicAngle: 0
UnderlinePosition: -102
UnderlineWidth: 51
Ascent: 819
Descent: 205
InvalidEm: 0
LayerCount: 2
Layer: 0 0 "Back" 1
Layer: 1 0 "Fore" 0
XUID: [1021 641 -1616136743 3538]
FSType: 0
OS2Version: 0
OS2_WeightWidthSlopeOnly: 0
OS2_UseTypoMetrics: 1
CreationTime: 1702974998
ModificationTime: 1703043779
PfmFamily: 65
TTFWeight: 300
TTFWidth: 5
LineGap: 92
VLineGap: 0
OS2TypoAscent: 0
OS2TypoAOffset: 1
OS2TypoDescent: 0
OS2TypoDOffset: 1
OS2TypoLinegap: 92
OS2WinAscent: 0
OS2WinAOffset: 1
OS2WinDescent: 0
OS2WinDOffset: 1
HheadAscent: 0
HheadAOffset: 1
HheadDescent: 0
HheadDOffset: 1
OS2Vendor: 'PfEd'
MarkAttachClasses: 1
DEI: 91125
LangName: 1033
Encoding: ISO8859-1
UnicodeInterp: none
NameList: AGL For New Fonts
DisplaySize: -48
AntiAlias: 1
FitToEm: 0
WidthSeparation: 100
WinInfo: 0 38 12
BeginPrivate: 0
EndPrivate
TeXData: 1 0 0 102400 50331 33554 527284 1048576 33554 783286 444596 497025 792723 393216 433062 380633 303038 157286 324010 404750 52429 2506097 1059062 262144
BeginChars: 260 98

StartChar: d
Encoding: 100 100 0
Width: 523
Flags: HW
LayerCount: 2
Fore
SplineSet
461.958007812 714 m 2
 451.958007812 482 458.958007812 250 483.958007812 19 c 0
 485.958007812 -3 444.958007812 -8 440.958007812 14 c 0
 438.958007812 27 435.958007812 41 433.958007812 54 c 1
 371.958007812 -10 260.958007812 -13 178.958007812 30 c 0
 7.9580078125 120 -31.0419921875 378 180.958007812 449 c 0
 270.958007812 479 371.958007812 446 415.958007812 369 c 1
 411.958007812 484 411.958007812 599 416.958007812 714 c 0
 417.958007812 739 462.958007812 740 461.958007812 714 c 2
419.958007812 106 m 1
 420.958007812 109 423.958007812 112 425.958007812 113 c 0
 421.958007812 138 417.958007812 162 413.958007812 187 c 0
 405.958007812 239 404.958007812 298 379.958007812 346 c 0
 330.958007812 441 198.958007812 439 125.958007812 370 c 0
 47.9580078125 297 71.9580078125 180 140.958007812 109 c 0
 211.958007812 36 361.958007812 1 419.958007812 106 c 1
EndSplineSet
Validated: 524321
EndChar

StartChar: e
Encoding: 101 101 1
Width: 614
Flags: HW
LayerCount: 2
Fore
SplineSet
545.209960938 176 m 1
 544.209960938 176 l 1
 554.209960938 197 586.209960938 178 576.209960938 158 c 0
 516.209960938 36 371.209960938 -27 237.209960938 12 c 0
 116.209960938 48 31.2099609375 162 36.2099609375 286 c 0
 41.2099609375 412 136.209960938 510 263.209960938 528 c 0
 321.209960938 536 392.209960938 531 443.209960938 499 c 0
 489.209960938 471 515.209960938 410 477.209960938 365 c 0
 459.209960938 345 433.209960938 333 408.209960938 325 c 0
 373.209960938 314 337.209960938 305 301.209960938 297 c 0
 226.209960938 279 150.209960938 265 74.2099609375 254 c 0
 75.2099609375 246 76.2099609375 237 78.2099609375 229 c 0
 100.209960938 125 188.209960938 46 297.209960938 36 c 0
 402.209960938 27 500.209960938 84 545.209960938 176 c 1
221.209960938 482 m 1
 221.209960938 481 l 1
 134.209960938 452 79.2099609375 374 73.2099609375 289 c 1
 137.209960938 299 201.209960938 311 264.209960938 325 c 0
 299.209960938 333 332.209960938 342 366.209960938 351 c 0
 392.209960938 358 425.209960938 364 445.209960938 384 c 0
 467.209960938 406 459.209960938 437 439.209960938 457 c 0
 421.209960938 475 395.209960938 484 370.209960938 489 c 0
 321.209960938 500 269.209960938 498 221.209960938 482 c 1
EndSplineSet
Validated: 524321
EndChar

StartChar: f
Encoding: 102 102 2
Width: 464
Flags: HW
LayerCount: 2
Fore
SplineSet
421.041015625 685 m 0
 440.041015625 670 421.041015625 635 402.041015625 650 c 0
 352.041015625 689 280.041015625 722 243.041015625 646 c 0
 224.041015625 607 217.041015625 560 213.041015625 514 c 1
 260.041015625 522 306.041015625 531 353.041015625 539 c 0
 376.041015625 543 385.041015625 505 362.041015625 501 c 0
 311.041015625 492 260.041015625 482 209.041015625 473 c 0
 209.041015625 468 208.041015625 463 208.041015625 458 c 0
 196.041015625 313 206.041015625 167 237.041015625 25 c 0
 242.041015625 0 207.041015625 -10 202.041015625 15 c 0
 170.041015625 163 159.041015625 316 172.041015625 467 c 1
 133.041015625 460 95.041015625 453 56.041015625 446 c 0
 33.041015625 442 23.041015625 480 46.041015625 484 c 0
 90.041015625 492 133.041015625 500 177.041015625 508 c 0
 178.041015625 519 180.041015625 529 181.041015625 540 c 0
 189.041015625 601 199.041015625 678 250.041015625 715 c 0
 306.041015625 755 373.041015625 723 421.041015625 685 c 0
EndSplineSet
Validated: 524321
EndChar

StartChar: g
Encoding: 103 103 3
Width: 490
Flags: HW
LayerCount: 2
Fore
SplineSet
436.125 509 m 1
 455.125 502 452.125 477 437.125 473 c 0
 436.125 359 435.125 244 434.125 130 c 0
 433.125 39 432.125 -70 379.125 -150 c 0
 260.125 -331 70.125 -10 35.125 87 c 0
 27.125 110 64.125 120 72.125 97 c 0
 100.125 19 145.125 -51 205.125 -109 c 0
 233.125 -136 277.125 -185 319.125 -159 c 0
 353.125 -138 367.125 -90 376.125 -54 c 0
 398.125 31 395.125 120 396.125 207 c 0
 397.125 259 396.125 312 397.125 365 c 1
 392.125 349 387.125 332 381.125 316 c 0
 369.125 281 354.125 244 326.125 217 c 0
 263.125 156 165.125 188 124.125 256 c 0
 80.125 329 100.125 421 164.125 476 c 0
 239.125 541 346.125 544 436.125 509 c 1
328.125 286 m 2
 358.125 348 375.125 417 396.125 483 c 1
 329.125 502 254.125 500 198.125 455 c 0
 143.125 411 120.125 336 157.125 275 c 0
 176.125 243 213.125 217 253.125 221 c 0
 290.125 224 313.125 256 328.125 286 c 2
EndSplineSet
Validated: 524321
EndChar

StartChar: h
Encoding: 104 104 4
Width: 487
Flags: HW
LayerCount: 2
Fore
SplineSet
408.344726562 341 m 1
 409.344726562 342 l 1
 431.344726562 235 443.344726562 127 447.344726562 18 c 0
 448.344726562 -5 409.344726562 -5 408.344726562 18 c 0
 405.344726562 108 396.344726562 197 380.344726562 286 c 0
 371.344726562 336 355.344726562 514 263.344726562 484 c 0
 223.344726562 471 203.344726562 423 189.344726562 390 c 0
 173.344726562 353 161.344726562 315 152.344726562 277 c 0
 133.344726562 197 130.344726562 116 140.344726562 35 c 0
 142.344726562 14 107.344726562 10 102.344726562 30 c 0
 47.3447265625 255 27.3447265625 486 43.3447265625 716 c 0
 44.3447265625 739 84.3447265625 739 82.3447265625 716 c 0
 70.3447265625 551 78.3447265625 386 103.344726562 223 c 1
 108.344726562 261 117.344726562 297 128.344726562 334 c 0
 148.344726562 398 181.344726562 511 267.344726562 522 c 0
 372.344726562 535 394.344726562 410 408.344726562 341 c 1
EndSplineSet
Validated: 524321
EndChar

StartChar: i
Encoding: 105 105 5
Width: 203
Flags: HW
LayerCount: 2
Fore
SplineSet
125.59375 364.051757812 m 2
 125.885742188 364.051757812 l 1
 131.15234375 246.73046875 123.252929688 129.116210938 103.065429688 13.2578125 c 0
 98.9697265625 -9.8544921875 63.568359375 -0.2001953125 67.6640625 22.9130859375 c 0
 87.2666015625 135.552734375 94.2880859375 249.948242188 89.021484375 364.051757812 c 0
 87.8515625 387.75 124.422851562 387.45703125 125.59375 364.051757812 c 2
79.3671875 537.838867188 m 1
 79.3671875 537.838867188 79.07421875 537.838867188 78.7822265625 537.838867188 c 1
 78.7822265625 537.838867188 79.07421875 537.838867188 79.3671875 537.838867188 c 1
120.912109375 487.809570312 m 1
 120.912109375 487.809570312 121.205078125 487.809570312 121.497070312 487.809570312 c 2
 121.497070312 487.809570312 121.790039062 487.809570312 122.08203125 488.1015625 c 1
 121.497070312 488.1015625 121.205078125 487.809570312 120.619140625 487.516601562 c 1
 120.912109375 487.809570312 l 1
131.737304688 567.095703125 m 1
 132.030273438 567.388671875 l 1
 148.999023438 548.6640625 167.723632812 525.84375 165.090820312 498.634765625 c 0
 162.45703125 474.350585938 146.658203125 452.700195312 120.912109375 451.237304688 c 0
 107.74609375 450.65234375 94.873046875 456.211914062 83.755859375 462.940429688 c 0
 73.515625 469.084960938 62.9833984375 476.106445312 54.2060546875 484.297851562 c 0
 34.896484375 502.4375 25.826171875 532.865234375 43.380859375 555.685546875 c 0
 51.572265625 566.510742188 62.9833984375 572.947265625 76.7333984375 574.41015625 c 0
 87.2666015625 575.581054688 97.2138671875 572.362304688 105.991210938 567.095703125 c 1
 112.427734375 574.118164062 125.30078125 574.118164062 131.737304688 567.095703125 c 1
127.056640625 494.831054688 m 1
 127.056640625 494.538085938 l 1
 127.056640625 494.24609375 l 1
 127.348632812 495.708984375 127.93359375 497.171875 128.2265625 498.634765625 c 0
 128.2265625 499.219726562 128.2265625 499.219726562 128.2265625 499.219726562 c 1
 128.2265625 500.974609375 128.2265625 502.4375 128.2265625 504.193359375 c 2
 128.2265625 504.193359375 128.2265625 504.778320312 128.2265625 505.65625 c 0
 127.641601562 507.704101562 127.056640625 509.751953125 126.470703125 511.799804688 c 0
 126.470703125 512.092773438 125.885742188 512.677734375 125.885742188 513.262695312 c 0
 125.885742188 513.555664062 125.885742188 513.84765625 125.885742188 513.84765625 c 2
 124.130859375 517.358398438 122.08203125 520.870117188 119.7421875 524.380859375 c 0
 118.864257812 525.55078125 117.986328125 526.428710938 117.401367188 527.598632812 c 1
 116.5234375 529.061523438 115.353515625 530.232421875 114.182617188 531.6953125 c 0
 113.305664062 532.865234375 112.134765625 533.743164062 111.256835938 534.913085938 c 1
 104.235351562 528.4765625 93.9951171875 529.939453125 86.9736328125 535.791015625 c 1
 89.8994140625 533.157226562 86.388671875 535.498046875 85.5107421875 536.375976562 c 0
 84.92578125 536.375976562 84.0478515625 536.9609375 83.462890625 536.9609375 c 0
 83.1708984375 536.9609375 83.1708984375 536.9609375 83.1708984375 536.9609375 c 2
 82.5849609375 536.9609375 80.830078125 537.25390625 79.3671875 537.25390625 c 1
 78.7822265625 537.25390625 78.1962890625 537.25390625 78.1962890625 537.25390625 c 1
 78.1962890625 537.25390625 78.7822265625 537.25390625 79.07421875 537.25390625 c 1
 78.7822265625 537.25390625 78.7822265625 537.25390625 78.1962890625 537.25390625 c 2
 77.611328125 537.25390625 l 1
 77.611328125 537.25390625 75.8564453125 536.375976562 74.685546875 535.791015625 c 1
 73.80859375 535.498046875 73.515625 534.913085938 73.515625 534.913085938 c 2
 73.515625 534.620117188 74.1005859375 535.206054688 74.3935546875 535.498046875 c 1
 74.1005859375 535.206054688 74.1005859375 535.206054688 73.515625 534.620117188 c 0
 72.9306640625 534.03515625 72.6376953125 533.743164062 72.052734375 533.157226562 c 1
 72.052734375 532.572265625 72.052734375 532.865234375 72.052734375 532.572265625 c 2
 72.052734375 532.572265625 71.4677734375 531.6953125 71.1748046875 531.109375 c 1
 71.4677734375 532.280273438 71.759765625 532.865234375 71.1748046875 531.109375 c 1
 71.1748046875 530.817382812 71.1748046875 530.524414062 71.1748046875 530.524414062 c 1
 71.1748046875 530.817382812 l 1
 70.8828125 529.939453125 70.58984375 529.354492188 70.58984375 528.76953125 c 1
 70.58984375 528.4765625 70.58984375 528.4765625 70.58984375 528.4765625 c 2
 70.58984375 527.598632812 70.58984375 526.720703125 70.58984375 525.84375 c 0
 70.8828125 525.2578125 71.1748046875 524.380859375 71.1748046875 523.502929688 c 0
 71.4677734375 523.209960938 71.4677734375 522.91796875 71.4677734375 522.333007812 c 0
 71.4677734375 521.747070312 72.052734375 520.577148438 72.052734375 520.577148438 c 2
 72.6376953125 518.821289062 73.80859375 517.358398438 74.685546875 515.896484375 c 0
 74.978515625 515.310546875 74.978515625 515.310546875 74.978515625 515.310546875 c 2
 75.271484375 515.018554688 75.271484375 515.018554688 75.5634765625 514.725585938 c 0
 76.1484375 514.140625 76.7333984375 513.555664062 77.3193359375 512.970703125 c 0
 78.7822265625 511.5078125 80.2451171875 510.044921875 82 508.58203125 c 0
 82.5849609375 507.99609375 84.92578125 506.241210938 84.92578125 506.241210938 c 2
 86.388671875 505.071289062 87.8515625 504.193359375 89.314453125 503.022460938 c 0
 96.3359375 498.341796875 103.357421875 493.66015625 110.96484375 489.857421875 c 0
 111.549804688 489.857421875 112.427734375 489.272460938 112.719726562 489.272460938 c 0
 113.59765625 488.979492188 114.475585938 488.39453125 115.645507812 488.39453125 c 0
 115.938476562 488.1015625 116.5234375 488.1015625 117.108398438 488.1015625 c 0
 117.694335938 488.1015625 118.571289062 488.1015625 118.571289062 488.1015625 c 2
 118.864257812 488.1015625 119.44921875 488.1015625 119.44921875 488.1015625 c 1
 118.864257812 488.1015625 119.44921875 488.1015625 120.034179688 488.1015625 c 0
 120.327148438 488.1015625 120.619140625 488.1015625 120.912109375 488.1015625 c 1
 120.619140625 488.1015625 120.034179688 488.1015625 120.034179688 488.1015625 c 1
 120.327148438 488.1015625 120.912109375 488.1015625 120.912109375 488.1015625 c 1
 121.497070312 488.1015625 l 1
 121.205078125 487.516601562 121.205078125 487.516601562 122.08203125 488.1015625 c 1
 122.66796875 488.39453125 123.252929688 488.39453125 123.252929688 488.39453125 c 1
 122.959960938 488.39453125 122.66796875 488.39453125 122.66796875 488.39453125 c 1
 122.959960938 488.686523438 123.544921875 488.979492188 123.544921875 488.979492188 c 2
 124.130859375 489.564453125 124.422851562 489.857421875 125.0078125 490.442382812 c 0
 125.885742188 491.3203125 127.056640625 491.612304688 125.30078125 490.734375 c 1
 124.130859375 490.149414062 124.715820312 489.564453125 125.30078125 490.734375 c 1
 125.59375 491.3203125 126.178710938 492.197265625 126.470703125 492.783203125 c 1
 126.178710938 492.783203125 126.763671875 493.075195312 126.763671875 493.66015625 c 1
 126.470703125 492.783203125 126.178710938 492.197265625 126.763671875 493.66015625 c 1
 126.763671875 493.953125 126.763671875 493.953125 126.763671875 493.953125 c 2
 127.056640625 494.538085938 127.056640625 494.831054688 127.056640625 494.831054688 c 1
119.7421875 487.516601562 m 1
 119.15625 487.516601562 l 1
 119.15625 487.516601562 119.44921875 487.516601562 119.7421875 487.516601562 c 1
126.763671875 493.953125 m 1
 126.763671875 493.953125 126.763671875 494.24609375 126.763671875 494.538085938 c 1
 126.763671875 494.538085938 126.763671875 493.953125 126.470703125 493.66015625 c 1
 126.470703125 493.66015625 126.470703125 493.66015625 126.470703125 494.24609375 c 1
 126.763671875 493.953125 l 1
74.3935546875 536.083007812 m 1
 74.3935546875 535.791015625 l 1
 74.3935546875 536.083007812 l 1
70.8828125 531.109375 m 1
 70.8828125 531.109375 70.8828125 531.109375 70.8828125 531.40234375 c 1
 70.8828125 531.109375 l 1
EndSplineSet
Validated: 524325
EndChar

StartChar: j
Encoding: 106 106 6
Width: 353
Flags: HW
LayerCount: 2
Fore
SplineSet
247.202148438 371.365234375 m 2
 247.202148438 371.073242188 l 2
 308.349609375 232.1015625 330 62.9951171875 283.481445312 -84.16796875 c 0
 264.170898438 -144.4375 220.87109375 -202.07421875 153.287109375 -205 c 0
 85.1171875 -207.92578125 53.8125 -146.485351562 34.2099609375 -90.3115234375 c 0
 25.7255859375 -65.736328125 64.3447265625 -55.203125 72.830078125 -79.4873046875 c 0
 90.96875 -131.564453125 124.615234375 -188.03125 187.224609375 -154.092773438 c 0
 236.084960938 -127.760742188 249.834960938 -64.5654296875 258.612304688 -13.951171875 c 0
 279.677734375 108.63671875 262.708984375 237.368164062 212.678710938 350.885742188 c 0
 202.438476562 374.583984375 236.669921875 395.064453125 247.202148438 371.365234375 c 2
302.498046875 557.44140625 m 2
 302.791015625 557.44140625 l 2
 312.73828125 543.397460938 307.1796875 524.672851562 302.206054688 509.751953125 c 0
 293.720703125 484.590820312 276.166992188 458.551757812 246.32421875 454.163085938 c 0
 231.696289062 452.115234375 217.9453125 454.749023438 206.2421875 463.818359375 c 0
 197.172851562 470.83984375 191.028320312 481.665039062 188.395507812 492.490234375 c 0
 182.836914062 516.481445312 191.61328125 541.057617188 210.337890625 558.026367188 c 0
 229.647460938 575.581054688 255.39453125 583.1875 281.725585938 579.676757812 c 0
 288.747070312 578.798828125 292.55078125 572.069335938 292.84375 565.92578125 c 0
 296.646484375 563.584960938 300.157226562 560.952148438 302.498046875 557.44140625 c 2
276.458984375 534.620117188 m 1
 277.629882812 533.157226562 l 1
 278.21484375 536.375976562 277.629882812 534.620117188 277.629882812 534.03515625 c 1
 277.629882812 535.206054688 277.629882812 536.375976562 277.629882812 537.545898438 c 1
 271.778320312 534.328125 263.5859375 535.791015625 258.905273438 539.88671875 c 0
 256.271484375 541.934570312 255.39453125 544.568359375 254.80859375 547.201171875 c 1
 253.638671875 546.908203125 252.17578125 546.616210938 251.005859375 546.03125 c 0
 250.712890625 545.73828125 246.6171875 543.982421875 249.54296875 545.4453125 c 1
 248.665039062 545.153320312 247.787109375 544.568359375 246.909179688 544.275390625 c 0
 244.569335938 543.397460938 242.228515625 542.227539062 240.180664062 540.764648438 c 0
 239.302734375 540.1796875 238.1328125 539.594726562 237.254882812 539.008789062 c 0
 236.669921875 539.008789062 236.669921875 539.008789062 236.669921875 539.008789062 c 1
 234.9140625 537.545898438 232.866210938 535.791015625 231.110351562 534.03515625 c 0
 230.233398438 533.450195312 229.647460938 532.572265625 228.770507812 531.6953125 c 0
 228.477539062 531.40234375 227.892578125 530.817382812 227.599609375 530.524414062 c 0
 226.72265625 529.061523438 225.844726562 527.891601562 224.966796875 526.720703125 c 0
 223.796875 524.672851562 222.918945312 522.91796875 221.748046875 520.870117188 c 0
 221.456054688 520.870117188 221.456054688 520.284179688 221.456054688 520.284179688 c 2
 221.456054688 519.69921875 220.87109375 519.114257812 220.87109375 518.529296875 c 0
 219.993164062 516.7734375 219.408203125 514.725585938 219.115234375 512.677734375 c 2
 219.115234375 512.677734375 218.823242188 511.21484375 218.823242188 510.629882812 c 0
 218.823242188 510.336914062 218.823242188 510.044921875 218.823242188 510.044921875 c 2
 218.823242188 508.2890625 218.823242188 506.241210938 218.823242188 504.485351562 c 0
 218.823242188 503.900390625 218.823242188 503.022460938 218.823242188 502.145507812 c 1
 219.408203125 500.389648438 219.700195312 498.341796875 220.28515625 496.293945312 c 0
 220.578125 495.416015625 220.87109375 494.831054688 221.163085938 493.953125 c 1
 222.041015625 492.490234375 223.50390625 491.02734375 224.088867188 489.564453125 c 0
 224.966796875 488.979492188 225.551757812 488.1015625 226.13671875 487.516601562 c 0
 226.4296875 486.931640625 227.892578125 486.053710938 227.892578125 486.053710938 c 2
 228.185546875 485.760742188 228.770507812 485.46875 228.770507812 485.46875 c 2
 229.0625 485.17578125 229.35546875 484.883789062 229.647460938 484.883789062 c 1
 229.35546875 485.17578125 230.818359375 484.005859375 231.696289062 484.005859375 c 0
 232.573242188 483.712890625 233.744140625 483.712890625 234.622070312 483.420898438 c 1
 234.9140625 483.420898438 234.9140625 483.420898438 235.20703125 483.420898438 c 0
 236.961914062 483.420898438 238.424804688 483.420898438 240.180664062 483.420898438 c 0
 240.765625 483.712890625 242.521484375 484.005859375 242.813476562 484.005859375 c 0
 243.984375 484.297851562 245.154296875 484.883789062 246.32421875 485.17578125 c 0
 246.6171875 485.17578125 246.6171875 485.17578125 246.6171875 485.17578125 c 1
 247.495117188 485.760742188 248.665039062 486.346679688 249.834960938 486.931640625 c 0
 251.297851562 487.516601562 252.760742188 488.686523438 254.223632812 489.564453125 c 0
 254.516601562 489.857421875 255.686523438 490.734375 255.686523438 490.734375 c 2
 256.271484375 491.3203125 257.149414062 492.197265625 257.734375 492.783203125 c 0
 260.66015625 495.708984375 262.708984375 498.048828125 265.341796875 502.73046875 c 0
 266.51171875 504.778320312 267.682617188 506.826171875 268.559570312 508.874023438 c 0
 268.559570312 509.458984375 268.559570312 509.458984375 268.559570312 509.458984375 c 2
 268.852539062 509.751953125 268.852539062 509.751953125 268.852539062 510.336914062 c 0
 269.145507812 511.21484375 269.73046875 512.384765625 270.022460938 513.262695312 c 0
 271.778320312 517.944335938 273.241210938 522.91796875 274.704101562 527.598632812 c 0
 275.2890625 529.939453125 275.874023438 532.280273438 276.458984375 534.620117188 c 1
EndSplineSet
Validated: 524321
EndChar

StartChar: k
Encoding: 107 107 7
Width: 517
Flags: HW
LayerCount: 2
Fore
SplineSet
478.184570312 23 m 1
 491.184570312 0 446.184570312 -15 433.184570312 8 c 0
 374.184570312 112 264.184570312 195 129.184570312 242 c 1
 128.184570312 168 127.184570312 94 124.184570312 21 c 0
 123.184570312 -3 73.1845703125 1 74.1845703125 25 c 0
 77.1845703125 102 78.1845703125 180 79.1845703125 257 c 0
 69.1845703125 260 59.1845703125 262 49.1845703125 264 c 0
 29.1845703125 269 27.1845703125 293 46.1845703125 299 c 0
 57.1845703125 302 69.1845703125 306 80.1845703125 310 c 0
 80.1845703125 444 77.1845703125 579 71.1845703125 713 c 0
 70.1845703125 737 120.184570312 733 121.184570312 709 c 0
 127.184570312 582 129.184570312 455 129.184570312 329 c 1
 232.184570312 373 317.184570312 439 370.184570312 520 c 0
 384.184570312 541 431.184570312 527 417.184570312 506 c 0
 354.184570312 411 254.184570312 333 129.184570312 285 c 0
 129.184570312 284 129.184570312 283 129.184570312 282 c 0
 283.184570312 233 412.184570312 139 478.184570312 23 c 1
EndSplineSet
Validated: 524321
EndChar

StartChar: l
Encoding: 108 108 8
Width: 137
Flags: HW
LayerCount: 2
Fore
SplineSet
78.0205078125 712 m 0
 82.0205078125 482 86.0205078125 251 90.0205078125 21 c 0
 91.0205078125 -7 54.0205078125 -7 53.0205078125 21 c 0
 49.0205078125 251 46.0205078125 482 42.0205078125 712 c 0
 41.0205078125 740 77.0205078125 740 78.0205078125 712 c 0
EndSplineSet
Validated: 524321
EndChar

StartChar: m
Encoding: 109 109 9
Width: 793
Flags: HW
LayerCount: 2
Fore
SplineSet
743.01953125 317 m 1
 743.01953125 318 l 1
 756.01953125 224 746.01953125 129 716.01953125 39 c 0
 708.01953125 15 671.01953125 25 679.01953125 49 c 0
 704.01953125 122 714.01953125 199 709.01953125 276 c 0
 705.01953125 334 695.01953125 424 641.01953125 457 c 0
 577.01953125 496 498.01953125 416 458.01953125 372 c 0
 414.01953125 323 380.01953125 265 357.01953125 202 c 0
 350.01953125 181 321.01953125 184 320.01953125 207 c 0
 316.01953125 267 313.01953125 328 307.01953125 388 c 0
 305.01953125 408 301.01953125 433 276.01953125 436 c 0
 262.01953125 438 248.01953125 428 238.01953125 419 c 0
 218.01953125 400 204.01953125 371 191.01953125 347 c 0
 137.01953125 247 106.01953125 135 102.01953125 20 c 0
 101.01953125 -6 65.01953125 -5 64.01953125 20 c 0
 56.01953125 184 47.01953125 348 39.01953125 512 c 0
 38.01953125 538 76.01953125 537 77.01953125 512 c 0
 82.01953125 410 88.01953125 309 93.01953125 207 c 1
 97.01953125 221 101.01953125 236 106.01953125 250 c 0
 129.01953125 315 158.01953125 387 203.01953125 439 c 0
 239.01953125 481 307.01953125 495 335.01953125 436 c 0
 349.01953125 407 347.01953125 370 349.01953125 339 c 0
 350.01953125 321 352.01953125 304 353.01953125 286 c 1
 378.01953125 335 411.01953125 380 450.01953125 419 c 0
 500.01953125 468 574.01953125 528 647.01953125 498 c 0
 714.01953125 470 734.01953125 383 743.01953125 317 c 1
EndSplineSet
Validated: 524321
EndChar

StartChar: n
Encoding: 110 110 10
Width: 514
Flags: HW
LayerCount: 2
Fore
SplineSet
393.392578125 461 m 2
 478.392578125 329 494.392578125 159 441.392578125 13 c 0
 433.392578125 -10 395.392578125 0 403.392578125 23 c 0
 433.392578125 105 441.392578125 194 424.392578125 279 c 0
 416.392578125 321 403.392578125 362 384.392578125 400 c 0
 367.392578125 434 341.392578125 495 293.392578125 467 c 0
 222.392578125 425 167.392578125 347 132.392578125 276 c 0
 105.392578125 221 89.392578125 162 83.392578125 102 c 0
 82.392578125 81 82.392578125 61 81.392578125 40 c 0
 80.392578125 16 43.392578125 16 42.392578125 40 c 0
 41.392578125 62 42.392578125 84 44.392578125 105 c 0
 49.392578125 241 53.392578125 377 58.392578125 513 c 0
 59.392578125 537 98.392578125 537 97.392578125 513 c 2
 88.392578125 273 l 1
 90.392578125 277 91.392578125 281 93.392578125 285 c 0
 125.392578125 353 171.392578125 415 228.392578125 465 c 0
 253.392578125 487 284.392578125 514 320.392578125 513 c 0
 354.392578125 512 377.392578125 486 393.392578125 461 c 2
EndSplineSet
Validated: 524321
EndChar

StartChar: o
Encoding: 111 111 11
Width: 548
Flags: HW
LayerCount: 2
Fore
SplineSet
483.397460938 437 m 2
 484.397460938 437 l 2
 528.397460938 343 500.397460938 226 445.397460938 139 c 0
 395.397460938 61 290.397460938 -40 171.397460938 17 c 0
 64.3974609375 68 24.3974609375 191 40.3974609375 285 c 0
 50.3974609375 346 85.3974609375 402 135.397460938 446 c 1
 117.397460938 449 106.397460938 471 126.397460938 480 c 0
 192.397460938 508 263.397460938 537 340.397460938 530 c 0
 409.397460938 524 459.397460938 488 483.397460938 437 c 2
424.397460938 190 m 1
 460.397460938 263 479.397460938 362 435.397460938 436 c 0
 400.397460938 494 336.397460938 500 272.397460938 488 c 0
 270.397460938 485 268.397460938 482 263.397460938 480 c 0
 164.397460938 438 92.3974609375 358 83.3974609375 267 c 0
 75.3974609375 191 109.397460938 82 201.397460938 45 c 0
 306.397460938 3 393.397460938 127 424.397460938 190 c 1
EndSplineSet
Validated: 524321
EndChar

StartChar: p
Encoding: 112 112 12
Width: 523
Flags: HW
LayerCount: 2
Fore
SplineSet
454.1796875 344 m 0
 475.1796875 295 493.1796875 239 470.1796875 188 c 0
 451.1796875 144 406.1796875 118 355.1796875 110 c 0
 273.1796875 96 188.1796875 117 117.1796875 157 c 1
 121.1796875 42 124.1796875 -72 128.1796875 -186 c 0
 129.1796875 -212 85.1796875 -211 83.1796875 -186 c 0
 77.1796875 -103 72.1796875 -20 66.1796875 63 c 0
 63.1796875 109 59.1796875 155 56.1796875 201 c 0
 51.1796875 205 45.1796875 209 40.1796875 214 c 0
 26.1796875 228 38.1796875 246 54.1796875 248 c 0
 54.1796875 258 54.1796875 269 54.1796875 279 c 0
 55.1796875 307 58.1796875 336 66.1796875 365 c 0
 64.1796875 414 63.1796875 463 62.1796875 512 c 0
 61.1796875 537 105.1796875 537 106.1796875 512 c 0
 107.1796875 493 107.1796875 473 108.1796875 454 c 1
 134.1796875 488 170.1796875 514 220.1796875 524 c 0
 350.1796875 551 416.1796875 431 454.1796875 344 c 0
417.1796875 184 m 1
 417.1796875 183 l 1
 460.1796875 234 424.1796875 304 401.1796875 355 c 0
 376.1796875 408 341.1796875 476 268.1796875 486 c 0
 196.1796875 496 139.1796875 438 117.1796875 384 c 0
 114.1796875 378 113.1796875 371 111.1796875 365 c 0
 113.1796875 312 114.1796875 260 116.1796875 207 c 0
 152.1796875 182 193.1796875 164 238.1796875 154 c 0
 295.1796875 141 378.1796875 137 417.1796875 184 c 1
EndSplineSet
Validated: 524321
EndChar

StartChar: q
Encoding: 113 113 13
Width: 432
Flags: HW
LayerCount: 2
Fore
SplineSet
379.124023438 -30 m 2
 380.124023438 -30 l 2
 404.124023438 -29 403.124023438 -68 380.124023438 -69 c 0
 290.124023438 -71 206.124023438 -117 152.124023438 -195 c 0
 138.124023438 -215 109.124023438 -198 120.124023438 -175 c 0
 207.124023438 -3 298.124023438 176 324.124023438 371 c 1
 304.124023438 329 278.124023438 290 247.124023438 255 c 0
 202.124023438 204 108.124023438 134 53.1240234375 213 c 0
 -1.8759765625 291 89.1240234375 385 136.124023438 437 c 0
 190.124023438 496 264.124023438 545 342.124023438 528 c 0
 349.124023438 530 357.124023438 528 362.124023438 522 c 0
 364.124023438 521 365.124023438 521 367.124023438 520 c 0
 385.124023438 513 381.124023438 486 367.124023438 482 c 0
 367.124023438 278 292.124023438 90 205.124023438 -88 c 1
 256.124023438 -51 316.124023438 -31 379.124023438 -30 c 2
93.1240234375 227 m 2
 94.1240234375 226 l 2
 154.124023438 183 230.124023438 288 260.124023438 334 c 0
 291.124023438 382 313.124023438 434 326.124023438 490 c 1
 267.124023438 498 211.124023438 461 169.124023438 417 c 0
 135.124023438 381 26.1240234375 275 93.1240234375 227 c 2
EndSplineSet
Validated: 524321
EndChar

StartChar: r
Encoding: 114 114 14
Width: 396
Flags: HW
LayerCount: 2
Fore
SplineSet
336.256835938 522.040039062 m 1
 335.963867188 521.747070312 l 1
 357.029296875 532.865234375 370.194335938 496.000976562 349.421875 484.883789062 c 0
 286.2265625 450.9453125 233.563476562 396.52734375 197.870117188 331.283203125 c 0
 200.2109375 323.383789062 202.55078125 315.484375 204.306640625 307.877929688 c 0
 224.201171875 225.665039062 223.616210938 138.771484375 200.2109375 58.021484375 c 0
 192.311523438 30.2275390625 167.442382812 -8.099609375 136.72265625 15.8916015625 c 0
 110.391601562 36.6640625 112.146484375 94.5927734375 111.561523438 125.313476562 c 0
 110.391601562 200.50390625 127.067382812 272.4765625 158.373046875 335.96484375 c 0
 137.600585938 400.038085938 101.321289062 465.866210938 44.5625 491.02734375 c 0
 22.912109375 500.974609375 37.833984375 536.375976562 59.7763671875 526.720703125 c 0
 117.120117188 501.267578125 156.91015625 440.998046875 182.071289062 377.802734375 c 1
 220.3984375 438.072265625 273.060546875 488.1015625 336.256835938 522.040039062 c 1
180.901367188 153.692382812 m 2
 180.608398438 153.985351562 l 2
 184.119140625 195.530273438 181.486328125 237.953125 173.293945312 279.206054688 c 1
 147.254882812 210.744140625 139.063476562 134.3828125 154.569335938 59.77734375 c 0
 156.6171875 50.70703125 155.740234375 43.978515625 161.590820312 58.6064453125 c 0
 165.6875 68.8466796875 168.3203125 79.96484375 170.953125 90.7900390625 c 0
 175.927734375 111.26953125 179.145507812 132.334960938 180.901367188 153.692382812 c 2
EndSplineSet
Validated: 524321
EndChar

StartChar: s
Encoding: 115 115 15
Width: 503
Flags: HW
LayerCount: 2
Fore
SplineSet
186.49609375 450 m 1
 169.49609375 438 147.49609375 422 137.49609375 402 c 0
 125.49609375 378 162.49609375 375 175.49609375 373 c 0
 224.49609375 365 273.49609375 359 321.49609375 349 c 0
 356.49609375 342 394.49609375 329 420.49609375 300 c 0
 448.49609375 269 456.49609375 225 446.49609375 183 c 0
 426.49609375 94 346.49609375 34 271.49609375 13 c 0
 194.49609375 -9 110.49609375 5 43.49609375 53 c 0
 23.49609375 67 42.49609375 103 62.49609375 89 c 0
 139.49609375 33 241.49609375 30 321.49609375 79 c 0
 358.49609375 101 393.49609375 135 408.49609375 181 c 0
 423.49609375 227 406.49609375 269 368.49609375 290 c 0
 331.49609375 310 287.49609375 313 247.49609375 319 c 0
 219.49609375 323 193.49609375 329 165.49609375 333 c 0
 148.49609375 336 130.49609375 338 116.49609375 350 c 0
 78.49609375 381 106.49609375 429 133.49609375 456 c 0
 162.49609375 485 195.49609375 505 232.49609375 518 c 0
 306.49609375 543 389.49609375 535 456.49609375 490 c 0
 476.49609375 477 457.49609375 441 437.49609375 454 c 0
 361.49609375 505 261.49609375 503 186.49609375 450 c 1
EndSplineSet
Validated: 524321
EndChar

StartChar: t
Encoding: 116 116 16
Width: 394
Flags: HW
LayerCount: 2
Fore
SplineSet
324.626953125 163 m 1
 324.626953125 162 l 1
 335.626953125 186 366.626953125 165 355.626953125 141 c 0
 327.626953125 77 288.626953125 1 217.626953125 0 c 0
 155.626953125 -1 116.626953125 66 105.626953125 130 c 0
 90.626953125 220 109.626953125 320 117.626953125 411 c 0
 120.626953125 446 123.626953125 481 126.626953125 516 c 1
 100.626953125 516 74.626953125 516 49.626953125 516 c 0
 25.626953125 516 26.626953125 558 49.626953125 558 c 0
 76.626953125 558 103.626953125 559 130.626953125 559 c 0
 134.626953125 610 139.626953125 662 143.626953125 713 c 0
 145.626953125 740 182.626953125 740 180.626953125 713 c 0
 175.626953125 662 171.626953125 610 166.626953125 559 c 1
 209.626953125 559 253.626953125 560 296.626953125 560 c 0
 320.626953125 560 319.626953125 518 296.626953125 518 c 0
 251.626953125 518 207.626953125 517 162.626953125 517 c 0
 154.626953125 426 145.626953125 335 139.626953125 244 c 0
 135.626953125 181 131.626953125 84 189.626953125 50 c 0
 255.626953125 11 301.626953125 109 324.626953125 163 c 1
EndSplineSet
Validated: 524321
EndChar

StartChar: u
Encoding: 117 117 17
Width: 559
Flags: HW
LayerCount: 2
Fore
SplineSet
496.4765625 54 m 1
 515.4765625 70 534.4765625 33 515.4765625 17 c 0
 483.4765625 -9 439.4765625 -4 407.4765625 21 c 0
 371.4765625 49 353.4765625 99 347.4765625 147 c 0
 340.4765625 196 341.4765625 245 345.4765625 295 c 1
 338.4765625 274 331.4765625 252 324.4765625 231 c 0
 311.4765625 192 298.4765625 154 284.4765625 116 c 0
 274.4765625 89 263.4765625 61 244.4765625 41 c 0
 202.4765625 -5 138.4765625 9 102.4765625 57 c 0
 61.4765625 111 49.4765625 193 42.4765625 262 c 0
 34.4765625 341 40.4765625 420 58.4765625 497 c 0
 64.4765625 524 99.4765625 512 93.4765625 486 c 0
 74.4765625 402 70.4765625 314 83.4765625 228 c 0
 89.4765625 188 98.4765625 146 115.4765625 110 c 0
 131.4765625 77 164.4765625 43 199.4765625 57 c 0
 227.4765625 68 241.4765625 106 252.4765625 136 c 0
 267.4765625 177 281.4765625 219 295.4765625 261 c 2
 381.4765625 516 l 2
 389.4765625 541 422.4765625 532 416.4765625 505 c 0
 396.4765625 406 376.4765625 307 379.4765625 205 c 0
 380.4765625 162 385.4765625 114 408.4765625 78 c 0
 428.4765625 46 466.4765625 30 496.4765625 54 c 1
EndSplineSet
Validated: 524321
EndChar

StartChar: v
Encoding: 118 118 18
Width: 543
Flags: HW
LayerCount: 2
Fore
SplineSet
471.020507812 523 m 1
 483.020507812 544 515.020507812 524 503.020507812 504 c 0
 406.020507812 339 309.020507812 174 212.020507812 9 c 0
 205.020507812 -3 187.020507812 -3 180.020507812 9 c 0
 91.0205078125 156 42.0205078125 325 36.0205078125 498 c 0
 35.0205078125 522 71.0205078125 522 72.0205078125 498 c 0
 77.0205078125 342 120.020507812 191 196.020507812 56 c 1
 288.020507812 212 379.020507812 367 471.020507812 523 c 1
EndSplineSet
Validated: 524321
EndChar

StartChar: w
Encoding: 119 119 19
Width: 787
Flags: HW
LayerCount: 2
Fore
SplineSet
709.625 481 m 1
 710.625 480 l 1
 717.625 506 755.625 495 748.625 468 c 0
 727.625 382 701.625 299 670.625 216 c 0
 656.625 179 642.625 143 626.625 107 c 0
 612.625 75 599.625 41 572.625 19 c 0
 524.625 -21 471.625 4 445.625 57 c 0
 417.625 115 396.625 179 379.625 242 c 1
 342.625 179 305.625 115 264.625 56 c 0
 237.625 17 186.625 -17 149.625 29 c 0
 131.625 51 126.625 81 120.625 108 c 0
 111.625 152 101.625 196 92.625 240 c 0
 73.625 328 54.625 416 35.625 504 c 0
 29.625 531 68.625 543 74.625 516 c 0
 103.625 382 132.625 247 161.625 113 c 0
 166.625 91 172.625 38 206.625 54 c 0
 231.625 66 246.625 103 260.625 126 c 0
 297.625 186 332.625 246 369.625 306 c 0
 378.625 321 402.625 319 406.625 301 c 0
 422.625 234 442.625 168 468.625 105 c 0
 479.625 79 493.625 36 527.625 43 c 0
 557.625 49 571.625 85 583.625 111 c 0
 637.625 229 677.625 354 709.625 481 c 1
EndSplineSet
Validated: 524321
EndChar

StartChar: x
Encoding: 120 120 20
Width: 506
Flags: HW
LayerCount: 2
Fore
SplineSet
428.96875 511 m 1
 428.96875 510 l 1
 442.96875 531 473.96875 505 458.96875 484 c 0
 411.96875 417 360.96875 352 309.96875 288 c 0
 357.96875 205 409.96875 125 464.96875 47 c 0
 479.96875 25 450.96875 1 435.96875 22 c 0
 381.96875 98 332.96875 176 285.96875 257 c 1
 214.96875 171 141.96875 88 64.96875 9 c 0
 47.96875 -9 24.96875 25 41.96875 43 c 0
 119.96875 123 193.96875 208 264.96875 295 c 0
 227.96875 362 190.96875 429 157.96875 499 c 0
 145.96875 523 180.96875 539 191.96875 515 c 0
 222.96875 451 254.96875 388 289.96875 326 c 1
 337.96875 386 383.96875 448 428.96875 511 c 1
EndSplineSet
Validated: 524321
EndChar

StartChar: y
Encoding: 121 121 21
Width: 420
Flags: HW
LayerCount: 2
Fore
SplineSet
67.1201171875 517 m 2
 67.1201171875 518 l 1
 75.1201171875 540 111.120117188 530 103.120117188 508 c 0
 89.1201171875 467 70.1201171875 419 93.1201171875 377 c 0
 110.120117188 346 145.120117188 327 180.120117188 327 c 0
 274.120117188 327 296.120117188 426 305.120117188 500 c 0
 308.120117188 523 340.120117188 524 342.120117188 500 c 0
 350.120117188 394 358.120117188 287 366.120117188 181 c 0
 370.120117188 129 374.120117188 77 378.120117188 25 c 0
 381.120117188 -19 387.120117188 -66 375.120117188 -109 c 0
 354.120117188 -183 287.120117188 -217 213.120117188 -198 c 0
 139.120117188 -179 77.1201171875 -121 37.1201171875 -58 c 0
 24.1201171875 -38 55.1201171875 -19 68.1201171875 -39 c 0
 105.120117188 -98 169.120117188 -157 241.120117188 -166 c 0
 343.120117188 -179 349.120117188 -69 343.120117188 4 c 0
 331.120117188 169 318.120117188 334 305.120117188 499 c 1
 342.120117188 499 l 1
 330.120117188 401 291.120117188 282 169.120117188 291 c 0
 126.120117188 294 87.1201171875 317 64.1201171875 354 c 0
 32.1201171875 405 49.1201171875 464 67.1201171875 517 c 2
EndSplineSet
Validated: 524325
EndChar

StartChar: z
Encoding: 122 122 22
Width: 702
Flags: HW
LayerCount: 2
Fore
SplineSet
646.443359375 56 m 1
 669.443359375 58 669.443359375 16 646.443359375 14 c 0
 449.443359375 -4 251.443359375 -4 54.443359375 15 c 0
 35.443359375 17 29.443359375 41 44.443359375 54 c 0
 159.443359375 152 266.443359375 264 360.443359375 389 c 0
 373.443359375 406 385.443359375 423 397.443359375 440 c 0
 402.443359375 447 408.443359375 454 412.443359375 462 c 0
 419.443359375 478 419.443359375 482 405.443359375 486 c 0
 389.443359375 491 367.443359375 487 351.443359375 487 c 0
 333.443359375 487 315.443359375 486 297.443359375 484 c 0
 224.443359375 477 151.443359375 457 82.443359375 427 c 0
 60.443359375 418 51.443359375 459 73.443359375 468 c 0
 157.443359375 504 245.443359375 525 335.443359375 529 c 0
 365.443359375 530 415.443359375 540 441.443359375 517 c 0
 467.443359375 494 453.443359375 456 437.443359375 431 c 0
 344.443359375 288 227.443359375 162 104.443359375 53 c 1
 285.443359375 39 465.443359375 39 646.443359375 56 c 1
EndSplineSet
Validated: 524321
EndChar

StartChar: braceleft
Encoding: 123 123 23
Width: 467
Flags: HW
LayerCount: 2
Fore
SplineSet
398.4140625 -91 m 2
 404.4140625 -68 439.4140625 -78 433.4140625 -101 c 0
 410.4140625 -193 304.4140625 -238 227.4140625 -178 c 0
 150.4140625 -118 166.4140625 -9 181.4140625 75 c 0
 191.4140625 131 202.4140625 210 150.4140625 248 c 1
 148.4140625 241 146.4140625 234 143.4140625 228 c 0
 130.4140625 195 94.4140625 169 59.4140625 187 c 0
 27.4140625 204 25.4140625 248 48.4140625 274 c 0
 66.4140625 294 92.4140625 302 117.4140625 300 c 1
 117.4140625 316 115.4140625 331 114.4140625 346 c 0
 105.4140625 448 75.4140625 558 131.4140625 653 c 0
 172.4140625 722 259.4140625 759 330.4140625 713 c 0
 350.4140625 700 332.4140625 668 312.4140625 681 c 0
 244.4140625 725 172.4140625 670 148.4140625 603 c 0
 125.4140625 539 136.4140625 470 144.4140625 404 c 0
 148.4140625 369 155.4140625 327 154.4140625 288 c 0
 251.4140625 239 223.4140625 112 209.4140625 25 c 0
 200.4140625 -34 197.4140625 -114 253.4140625 -152 c 0
 310.4140625 -191 382.4140625 -156 398.4140625 -91 c 2
92.4140625 244 m 1
 91.4140625 244 l 1
 110.4140625 234 108.4140625 236 112.4140625 254 c 0
 113.4140625 257 113.4140625 260 114.4140625 263 c 1
 107.4140625 264 100.4140625 263 93.4140625 261 c 0
 75.4140625 255 73.4140625 254 92.4140625 244 c 1
EndSplineSet
Validated: 524321
EndChar

StartChar: braceright
Encoding: 125 125 24
Width: 376
Flags: HW
LayerCount: 2
Fore
SplineSet
332.130859375 410 m 2
 333.130859375 410 l 2
 350.130859375 369 339.130859375 335 316.130859375 315 c 0
 289.130859375 196 263.130859375 76 233.130859375 -42 c 0
 210.130859375 -133 144.130859375 -242 41.130859375 -192 c 0
 20.130859375 -181 39.130859375 -148 60.130859375 -158 c 0
 118.130859375 -186 165.130859375 -129 184.130859375 -77 c 0
 201.130859375 -31 209.130859375 19 220.130859375 66 c 0
 238.130859375 143 256.130859375 220 274.130859375 297 c 1
 244.130859375 294 211.130859375 309 194.130859375 350 c 0
 170.130859375 406 184.130859375 482 185.130859375 542 c 0
 186.130859375 577 193.130859375 624 181.130859375 658 c 0
 163.130859375 709 104.130859375 714 76.130859375 670 c 0
 63.130859375 649 31.130859375 669 44.130859375 690 c 0
 97.130859375 773 209.130859375 742 221.130859375 643 c 0
 228.130859375 582 221.130859375 518 220.130859375 457 c 0
 219.130859375 425 215.130859375 389 230.130859375 360 c 0
 242.130859375 337 265.130859375 330 283.130859375 337 c 0
 288.130859375 360 294.130859375 382 299.130859375 405 c 0
 303.130859375 420 325.130859375 426 332.130859375 410 c 2
EndSplineSet
Validated: 524321
EndChar

StartChar: asciitilde
Encoding: 126 126 25
Width: 612
Flags: HW
LayerCount: 2
Fore
SplineSet
535.309570312 417 m 0
 552.309570312 437 579.309570312 406 562.309570312 386 c 0
 501.309570312 315 413.309570312 284 330.309570312 307 c 0
 282.309570312 320 241.309570312 356 194.309570312 374 c 0
 151.309570312 390 90.3095703125 385 81.3095703125 319 c 0
 77.3095703125 290 41.3095703125 303 45.3095703125 331 c 0
 51.3095703125 379 86.3095703125 415 125.309570312 425 c 0
 173.309570312 437 221.309570312 413 263.309570312 388 c 0
 310.309570312 360 354.309570312 339 408.309570312 346 c 0
 456.309570312 352 500.309570312 377 535.309570312 417 c 0
EndSplineSet
Validated: 524321
EndChar

StartChar: multiply
Encoding: 215 215 26
Width: 460
Flags: HW
LayerCount: 2
Fore
SplineSet
416.717773438 201 m 1
 416.717773438 202 l 1
 432.717773438 184 406.717773438 156 390.717773438 174 c 0
 337.717773438 233 284.717773438 293 231.717773438 352 c 1
 178.717773438 298 125.717773438 245 72.7177734375 191 c 0
 55.7177734375 174 30.7177734375 202 47.7177734375 219 c 0
 100.717773438 273 153.717773438 325 206.717773438 379 c 0
 157.717773438 433 105.717773438 485 46.7177734375 527 c 0
 26.7177734375 541 44.7177734375 574 64.7177734375 560 c 0
 126.717773438 516 180.717773438 462 232.717773438 406 c 1
 281.717773438 456 331.717773438 506 380.717773438 556 c 0
 397.717773438 573 423.717773438 545 406.717773438 528 c 2
 258.717773438 378 l 2
 311.717773438 319 363.717773438 260 416.717773438 201 c 1
EndSplineSet
Validated: 524321
EndChar

StartChar: divide
Encoding: 247 247 27
Width: 560
Flags: HW
LayerCount: 2
Fore
SplineSet
502.126953125 364 m 0
 527.126953125 363 528.126953125 326 502.126953125 327 c 0
 353.126953125 335 205.126953125 343 56.126953125 351 c 0
 31.126953125 352 30.126953125 389 56.126953125 388 c 0
 205.126953125 380 353.126953125 372 502.126953125 364 c 0
316.126953125 215 m 2
 316.126953125 214 l 2
 317.126953125 209 317.126953125 205 316.126953125 200 c 0
 316.126953125 197 314.126953125 194 313.126953125 191 c 0
 311.126953125 188 308.126953125 185 306.126953125 183 c 0
 304.126953125 181 302.126953125 178 299.126953125 177 c 0
 292.126953125 173 283.126953125 172 275.126953125 174 c 0
 269.126953125 175 264.126953125 179 260.126953125 183 c 0
 257.126953125 187 255.126953125 190 253.126953125 195 c 0
 252.126953125 198 252.126953125 201 252.126953125 204 c 0
 252.126953125 205 l 2
 250.126953125 206 248.126953125 207 247.126953125 208 c 0
 244.126953125 211 242.126953125 217 242.126953125 221 c 0
 242.126953125 225 243.126953125 230 247.126953125 233 c 0
 253.126953125 238 259.126953125 242 267.126953125 244 c 0
 274.126953125 246 283.126953125 246 290.126953125 243 c 0
 296.126953125 241 303.126953125 238 307.126953125 233 c 0
 311.126953125 228 315.126953125 222 316.126953125 215 c 2
309.126953125 522 m 1
 310.126953125 522 l 1
 310.126953125 519 310.126953125 516 310.126953125 513 c 0
 310.126953125 509 309.126953125 504 307.126953125 500 c 0
 305.126953125 494 302.126953125 490 298.126953125 485 c 0
 295.126953125 482 293.126953125 479 289.126953125 477 c 0
 285.126953125 475 281.126953125 474 277.126953125 473 c 0
 267.126953125 471 257.126953125 472 249.126953125 477 c 0
 241.126953125 482 235.126953125 490 234.126953125 500 c 0
 233.126953125 508 234.126953125 516 238.126953125 523 c 0
 241.126953125 527 245.126953125 531 249.126953125 534 c 0
 250.126953125 534 249.126953125 535 250.126953125 535 c 1
 250.126953125 543 255.126953125 551 262.126953125 555 c 0
 268.126953125 559 276.126953125 559 283.126953125 558 c 0
 288.126953125 557 294.126953125 554 298.126953125 550 c 0
 302.126953125 546 305.126953125 541 307.126953125 535 c 0
 308.126953125 531 308.126953125 526 309.126953125 522 c 1
EndSplineSet
Validated: 524321
EndChar

StartChar: exclam
Encoding: 33 33 28
Width: 167
Flags: HW
LayerCount: 2
Fore
SplineSet
91.392578125 721 m 0
 98.392578125 744 134.392578125 734 127.392578125 711 c 0
 73.392578125 546 64.392578125 371 103.392578125 202 c 0
 108.392578125 179 73.392578125 169 68.392578125 192 c 0
 28.392578125 367 35.392578125 550 91.392578125 721 c 0
119.392578125 67 m 1
 119.392578125 68 l 1
 126.392578125 57 132.392578125 42 128.392578125 29 c 0
 123.392578125 14 107.392578125 0 90.392578125 6 c 0
 89.392578125 7 l 2
 88.392578125 7 88.392578125 6 87.392578125 6 c 0
 81.392578125 4 74.392578125 4 68.392578125 6 c 0
 60.392578125 8 54.392578125 13 49.392578125 20 c 0
 43.392578125 29 42.392578125 41 42.392578125 52 c 0
 42.392578125 54 42.392578125 56 42.392578125 58 c 0
 41.392578125 59 40.392578125 60 40.392578125 61 c 0
 39.392578125 65 40.392578125 71 42.392578125 75 c 0
 43.392578125 77 45.392578125 79 47.392578125 80 c 0
 47.392578125 81 48.392578125 82 49.392578125 83 c 0
 54.392578125 90 60.392578125 95 68.392578125 97 c 0
 77.392578125 99 85.392578125 98 93.392578125 94 c 0
 105.392578125 89 112.392578125 77 119.392578125 67 c 1
EndSplineSet
Validated: 524321
EndChar

StartChar: quotedbl
Encoding: 34 34 29
Width: 311
Flags: HW
LayerCount: 2
Fore
SplineSet
93.0576171875 720 m 1
 111.057617188 642 105.057617188 561 75.0576171875 487 c 0
 71.0576171875 478 64.0576171875 472 53.0576171875 475 c 0
 44.0576171875 477 36.0576171875 488 40.0576171875 497 c 0
 67.0576171875 565 74.0576171875 639 58.0576171875 710 c 0
 53.0576171875 733 88.0576171875 743 93.0576171875 720 c 1
262.057617188 712 m 0
 257.057617188 640 258.057617188 569 266.057617188 498 c 0
 267.057617188 487 257.057617188 477 248.057617188 477 c 0
 237.057617188 477 231.057617188 487 230.057617188 498 c 0
 222.057617188 569 221.057617188 640 226.057617188 712 c 0
 227.057617188 723 233.057617188 733 244.057617188 733 c 0
 253.057617188 733 263.057617188 723 262.057617188 712 c 0
EndSplineSet
Validated: 524321
EndChar

StartChar: numbersign
Encoding: 35 35 30
Width: 629
Flags: HW
LayerCount: 2
Fore
SplineSet
578.877929688 261 m 2
 579.877929688 261 l 2
 597.877929688 260 598.877929688 225 579.877929688 226 c 0
 512.877929688 232 444.877929688 234 377.877929688 236 c 0
 367.877929688 164 361.877929688 91 355.877929688 18 c 0
 353.877929688 -5 324.877929688 -5 326.877929688 18 c 0
 332.877929688 91 338.877929688 163 347.877929688 236 c 1
 289.877929688 237 232.877929688 238 174.877929688 236 c 0
 166.877929688 176 158.877929688 116 153.877929688 56 c 0
 151.877929688 33 122.877929688 33 124.877929688 56 c 0
 129.877929688 116 137.877929688 175 145.877929688 234 c 1
 112.877929688 233 80.8779296875 232 47.8779296875 230 c 0
 28.8779296875 229 29.8779296875 265 47.8779296875 266 c 0
 82.8779296875 268 115.877929688 269 150.877929688 270 c 0
 160.877929688 335 172.877929688 400 186.877929688 463 c 1
 142.877929688 465 96.8779296875 466 52.8779296875 469 c 0
 33.8779296875 470 33.8779296875 506 52.8779296875 505 c 0
 99.8779296875 502 146.877929688 500 193.877929688 498 c 0
 210.877929688 573 230.877929688 648 253.877929688 721 c 0
 259.877929688 742 288.877929688 733 281.877929688 711 c 0
 259.877929688 641 240.877929688 569 223.877929688 497 c 1
 282.877929688 495 340.877929688 494 399.877929688 494 c 0
 420.877929688 571 447.877929688 647 478.877929688 719 c 0
 487.877929688 739 511.877929688 721 502.877929688 701 c 0
 473.877929688 635 449.877929688 565 429.877929688 494 c 1
 473.877929688 494 518.877929688 495 562.877929688 496 c 0
 581.877929688 497 581.877929688 460 562.877929688 460 c 0
 515.877929688 459 467.877929688 459 419.877929688 459 c 0
 412.877929688 432 406.877929688 405 400.877929688 377 c 0
 393.877929688 342 386.877929688 306 381.877929688 271 c 1
 447.877929688 269 512.877929688 266 578.877929688 261 c 2
179.877929688 272 m 1
 237.877929688 273 294.877929688 273 352.877929688 272 c 0
 357.877929688 310 364.877929688 348 372.877929688 386 c 0
 377.877929688 411 383.877929688 435 389.877929688 459 c 1
 331.877929688 459 273.877929688 460 215.877929688 462 c 0
 201.877929688 399 189.877929688 336 179.877929688 272 c 1
EndSplineSet
Validated: 524321
EndChar

StartChar: dollar
Encoding: 36 36 31
Width: 541
Flags: HW
LayerCount: 2
Fore
SplineSet
313.23046875 412 m 1
 420.23046875 380 517.23046875 314 502.23046875 196 c 0
 489.23046875 98 393.23046875 28 290.23046875 28 c 0
 287.23046875 -11 285.23046875 -49 281.23046875 -87 c 0
 279.23046875 -110 240.23046875 -110 242.23046875 -87 c 0
 246.23046875 -48 248.23046875 -8 251.23046875 31 c 0
 151.23046875 48 71.23046875 128 81.23046875 228 c 0
 83.23046875 251 122.23046875 251 120.23046875 228 c 0
 111.23046875 140 177.23046875 84 254.23046875 70 c 1
 261.23046875 175 266.23046875 280 269.23046875 386 c 0
 258.23046875 389 247.23046875 392 236.23046875 395 c 0
 131.23046875 426 41.23046875 489 35.23046875 600 c 0
 30.23046875 694 107.23046875 782 208.23046875 791 c 0
 231.23046875 793 253.23046875 791 273.23046875 786 c 0
 282.23046875 799 307.23046875 795 308.23046875 776 c 0
 308.23046875 775 308.23046875 774 308.23046875 773 c 0
 378.23046875 741 429.23046875 671 470.23046875 610 c 0
 483.23046875 590 449.23046875 572 436.23046875 592 c 0
 402.23046875 642 365.23046875 699 309.23046875 731 c 1
 311.23046875 625 310.23046875 519 308.23046875 413 c 0
 309.23046875 413 313.23046875 412 313.23046875 412 c 1
125.23046875 491 m 2
 125.23046875 490 l 2
 164.23046875 453 218.23046875 437 270.23046875 423 c 1
 272.23046875 531 273.23046875 640 270.23046875 748 c 0
 266.23046875 749 262.23046875 750 258.23046875 751 c 0
 186.23046875 768 109.23046875 726 83.23046875 662 c 0
 59.23046875 604 79.23046875 535 125.23046875 491 c 2
443.23046875 144 m 2
 443.23046875 145 l 2
 478.23046875 203 468.23046875 279 414.23046875 324 c 0
 384.23046875 349 347.23046875 364 308.23046875 375 c 1
 305.23046875 272 299.23046875 169 292.23046875 66 c 1
 351.23046875 66 410.23046875 90 443.23046875 144 c 2
EndSplineSet
Validated: 524321
EndChar

StartChar: percent
Encoding: 37 37 32
Width: 861
Flags: HW
LayerCount: 2
Fore
SplineSet
597.471679688 725 m 0
 608.471679688 746 640.471679688 727 629.471679688 707 c 0
 508.471679688 475 388.471679688 241 267.471679688 9 c 0
 256.471679688 -12 225.471679688 8 236.471679688 28 c 0
 357.471679688 260 476.471679688 493 597.471679688 725 c 0
821.471679688 212 m 2
 822.471679688 212 l 2
 834.471679688 139 805.471679688 60 744.471679688 21 c 0
 688.471679688 -15 614.471679688 -3 567.471679688 44 c 0
 517.471679688 93 508.471679688 175 537.471679688 238 c 0
 558.471679688 285 601.471679688 318 648.471679688 333 c 1
 646.471679688 338 646.471679688 344 647.471679688 348 c 0
 650.471679688 359 660.471679688 362 670.471679688 361 c 0
 744.471679688 350 808.471679688 289 821.471679688 212 c 2
746.471679688 72 m 0
 785.471679688 112 796.471679688 177 777.471679688 230 c 0
 765.471679688 264 740.471679688 290 710.471679688 306 c 0
 707.471679688 304 704.471679688 302 700.471679688 302 c 0
 642.471679688 300 583.471679688 264 565.471679688 205 c 0
 549.471679688 153 562.471679688 90 608.471679688 59 c 0
 652.471679688 29 708.471679688 33 746.471679688 72 c 0
316.471679688 674 m 0
 341.471679688 596 362.471679688 508 315.471679688 434 c 0
 279.471679688 377 207.471679688 349 142.471679688 378 c 0
 77.4716796875 407 41.4716796875 480 37.4716796875 546 c 0
 32.4716796875 616 67.4716796875 688 130.471679688 724 c 0
 191.471679688 759 269.471679688 752 321.471679688 706 c 0
 333.471679688 695 327.471679688 680 316.471679688 674 c 0
295.471679688 493 m 1
 295.471679688 492 l 1
 312.471679688 555 290.471679688 619 270.471679688 678 c 0
 268.471679688 683 269.471679688 687 270.471679688 691 c 0
 225.471679688 715 167.471679688 706 129.471679688 672 c 0
 85.4716796875 633 70.4716796875 573 84.4716796875 517 c 0
 96.4716796875 470 129.471679688 419 181.471679688 408 c 0
 237.471679688 397 282.471679688 445 295.471679688 493 c 1
EndSplineSet
Validated: 524321
EndChar

StartChar: ampersand
Encoding: 38 38 33
Width: 686
Flags: HW
LayerCount: 2
Fore
SplineSet
640.1328125 35 m 2
 665.1328125 24 643.1328125 -9 618.1328125 2 c 0
 556.1328125 30 500.1328125 64 446.1328125 101 c 0
 421.1328125 94 397.1328125 89 372.1328125 85 c 0
 321.1328125 76 269.1328125 68 217.1328125 74 c 0
 146.1328125 82 78.1328125 121 68.1328125 186 c 0
 58.1328125 254 114.1328125 300 178.1328125 329 c 1
 165.1328125 342 153.1328125 353 140.1328125 366 c 0
 85.1328125 420 27.1328125 479 37.1328125 556 c 0
 46.1328125 625 104.1328125 681 176.1328125 709 c 0
 244.1328125 735 342.1328125 749 399.1328125 698 c 0
 448.1328125 654 457.1328125 582 446.1328125 524 c 0
 434.1328125 460 395.1328125 400 336.1328125 359 c 0
 313.1328125 343 281.1328125 331 248.1328125 318 c 1
 312.1328125 257 379.1328125 198 452.1328125 145 c 0
 525.1328125 171 592.1328125 217 547.1328125 288 c 0
 534.1328125 309 572.1328125 328 585.1328125 307 c 0
 629.1328125 237 583.1328125 161 508.1328125 124 c 0
 503.1328125 121 497.1328125 119 492.1328125 117 c 1
 539.1328125 86 587.1328125 59 640.1328125 35 c 2
89.1328125 583 m 0
 51.1328125 492 144.1328125 420 207.1328125 358 c 0
 211.1328125 354 215.1328125 350 219.1328125 346 c 0
 293.1328125 377 354.1328125 410 387.1328125 480 c 0
 414.1328125 538 425.1328125 652 346.1328125 687 c 0
 300.1328125 708 230.1328125 691 186.1328125 672 c 0
 142.1328125 653 106.1328125 623 89.1328125 583 c 0
360.1328125 122 m 1
 360.1328125 121 l 1
 373.1328125 123 388.1328125 127 404.1328125 131 c 1
 333.1328125 184 268.1328125 242 206.1328125 302 c 0
 164.1328125 284 127.1328125 261 114.1328125 223 c 0
 96.1328125 169 144.1328125 128 200.1328125 115 c 0
 252.1328125 102 309.1328125 113 360.1328125 122 c 1
EndSplineSet
Validated: 524321
EndChar

StartChar: quotesingle
Encoding: 39 39 34
Width: 152
Flags: HW
LayerCount: 2
Fore
SplineSet
110.434570312 501 m 0
 112.434570312 490 107.434570312 478 97.4345703125 475 c 0
 88.4345703125 472 77.4345703125 479 75.4345703125 490 c 2
 38.4345703125 706 l 2
 36.4345703125 717 41.4345703125 730 51.4345703125 733 c 0
 60.4345703125 736 71.4345703125 728 73.4345703125 717 c 0
 85.4345703125 645 98.4345703125 573 110.434570312 501 c 0
EndSplineSet
Validated: 524289
EndChar

StartChar: parenleft
Encoding: 40 40 35
Width: 251
Flags: HW
LayerCount: 2
Fore
SplineSet
214.655273438 -178 m 0
 227.655273438 -197 195.655273438 -216 182.655273438 -197 c 0
 -7.3447265625 78 -10.3447265625 446 174.655273438 725 c 0
 187.655273438 745 219.655273438 726 206.655273438 706 c 0
 28.6552734375 437 31.6552734375 87 214.655273438 -178 c 0
EndSplineSet
Validated: 524321
EndChar

StartChar: parenright
Encoding: 41 41 36
Width: 243
Flags: HW
LayerCount: 2
Fore
SplineSet
87.1201171875 724 m 0
 250.120117188 439 242.120117188 81 66.1201171875 -196 c 0
 53.1201171875 -216 22.1201171875 -197 35.1201171875 -177 c 0
 204.120117188 89 212.120117188 431 55.1201171875 705 c 0
 43.1201171875 726 75.1201171875 745 87.1201171875 724 c 0
EndSplineSet
Validated: 524321
EndChar

StartChar: asterisk
Encoding: 42 42 37
Width: 421
Flags: HW
LayerCount: 2
Fore
SplineSet
358.75 650 m 2
 359.75 650 l 2
 383.75 658 393.75 619 369.75 611 c 0
 316.75 592 263.75 578 208.75 566 c 1
 243.75 541 278.75 519 317.75 501 c 0
 327.75 497 329.75 483 324.75 474 c 0
 318.75 464 307.75 461 297.75 466 c 0
 253.75 486 213.75 512 174.75 540 c 1
 159.75 508 142.75 476 124.75 445 c 0
 111.75 423 77.75 443 90.75 465 c 0
 107.75 493 122.75 522 136.75 552 c 1
 109.75 548 83.75 545 56.75 543 c 0
 31.75 541 31.75 581 56.75 583 c 0
 75.75 585 94.75 587 113.75 590 c 1
 92.75 609 72.75 629 53.75 651 c 0
 36.75 670 64.75 699 81.75 679 c 0
 104.75 651 131.75 627 158.75 604 c 1
 174.75 646 188.75 688 199.75 732 c 0
 205.75 757 243.75 746 237.75 721 c 0
 227.75 682 215.75 643 201.75 605 c 1
 254.75 616 307.75 632 358.75 650 c 2
EndSplineSet
Validated: 33
EndChar

StartChar: plus
Encoding: 43 43 38
Width: 557
Flags: HW
LayerCount: 2
Fore
SplineSet
499.75 370 m 0
 524.75 370 524.75 330 499.75 330 c 0
 432.75 330 365.75 331 298.75 331 c 0
 297.75 267 296.75 202 295.75 138 c 0
 294.75 112 256.75 112 256.75 138 c 0
 257.75 202 257.75 267 258.75 331 c 1
 190.75 331 121.75 332 53.75 332 c 0
 28.75 332 28.75 372 53.75 372 c 0
 122.75 372 190.75 371 259.75 371 c 0
 260.75 442 261.75 513 262.75 584 c 0
 263.75 610 302.75 610 302.75 584 c 0
 301.75 513 300.75 442 299.75 371 c 1
 366.75 371 432.75 370 499.75 370 c 0
EndSplineSet
Validated: 33
EndChar

StartChar: comma
Encoding: 44 44 39
Width: 196
Flags: HW
LayerCount: 2
Fore
SplineSet
147.780273438 10 m 2
 151.780273438 -10 150.780273438 -31 142.780273438 -50 c 0
 129.780273438 -81 89.7802734375 -103 56.7802734375 -90 c 0
 47.7802734375 -86 41.7802734375 -77 44.7802734375 -67 c 0
 46.7802734375 -58 57.7802734375 -50 66.7802734375 -54 c 0
 68.7802734375 -55 70.7802734375 -55 73.7802734375 -56 c 1
 74.7802734375 -56 76.7802734375 -56 77.7802734375 -56 c 0
 78.7802734375 -56 81.7802734375 -56 81.7802734375 -56 c 2
 83.7802734375 -55 84.7802734375 -56 86.7802734375 -55 c 0
 86.7802734375 -55 88.7802734375 -54 89.7802734375 -54 c 0
 89.7802734375 -53 90.7802734375 -53 90.7802734375 -53 c 2
 92.7802734375 -52 94.7802734375 -50 96.7802734375 -49 c 0
 97.7802734375 -49 l 2
 98.7802734375 -48 98.7802734375 -48 99.7802734375 -47 c 0
 100.780273438 -46 103.780273438 -43 104.780273438 -42 c 0
 105.780273438 -41 105.780273438 -41 105.780273438 -41 c 2
 105.780273438 -40 106.780273438 -40 106.780273438 -39 c 0
 107.780273438 -37 108.780273438 -36 109.780273438 -34 c 0
 110.780273438 -32 111.780273438 -27 112.780273438 -23 c 0
 113.780273438 -17 113.780273438 -5 112.780273438 1 c 0
 111.780273438 5 110.780273438 7 109.780273438 11 c 1
 101.780273438 5 91.7802734375 3 81.7802734375 6 c 0
 59.7802734375 13 50.7802734375 39 63.7802734375 58 c 0
 77.7802734375 78 103.780273438 77 121.780273438 62 c 0
 135.780273438 50 143.780273438 28 147.780273438 10 c 2
EndSplineSet
Validated: 524321
EndChar

StartChar: hyphen
Encoding: 45 45 40
Width: 352
Flags: HW
LayerCount: 2
Fore
SplineSet
287.626953125 284 m 2
 311.626953125 284 310.626953125 248 287.626953125 248 c 2
 63.626953125 248 l 2
 39.626953125 248 40.626953125 284 63.626953125 284 c 2
 287.626953125 284 l 2
EndSplineSet
Validated: 524321
EndChar

StartChar: period
Encoding: 46 46 41
Width: 165
Flags: HW
LayerCount: 2
Fore
SplineSet
116.4140625 47 m 1
 116.4140625 48 l 1
 119.4140625 35 116.4140625 21 106.4140625 13 c 0
 100.4140625 8 91.4140625 3 83.4140625 4 c 0
 76.4140625 4 70.4140625 6 64.4140625 10 c 0
 58.4140625 14 53.4140625 19 50.4140625 25 c 0
 47.4140625 30 47.4140625 34 46.4140625 40 c 0
 45.4140625 44 46.4140625 47 47.4140625 51 c 0
 47.4140625 51 47.4140625 51 47.4140625 52 c 0
 48.4140625 56 48.4140625 60 50.4140625 64 c 0
 51.4140625 64 l 2
 51.4140625 77 63.4140625 88 76.4140625 88 c 0
 86.4140625 88 95.4140625 82 101.4140625 75 c 0
 107.4140625 71 113.4140625 64 115.4140625 57 c 0
 116.4140625 54 116.4140625 50 116.4140625 47 c 1
EndSplineSet
Validated: 524321
EndChar

StartChar: slash
Encoding: 47 47 42
Width: 320
Flags: HW
LayerCount: 2
Fore
SplineSet
249.487304688 720 m 0
 257.487304688 743 292.487304688 733 284.487304688 710 c 0
 209.487304688 480 123.487304688 251 70.4873046875 14 c 0
 64.4873046875 -10 29.4873046875 0 34.4873046875 24 c 0
 87.4873046875 261 174.487304688 490 249.487304688 720 c 0
EndSplineSet
Validated: 524321
EndChar

StartChar: zero
Encoding: 48 48 43
Width: 535
Flags: HW
LayerCount: 2
Fore
SplineSet
462.5 619 m 0
 496.5 555 500.5 473 493.5 399 c 0
 486.5 324 470.5 250 447.5 180 c 0
 429.5 124 408.5 56 364.5 23 c 0
 274.5 -45 153.5 48 98.5 136 c 0
 32.5 240 20.5 383 62.5 504 c 0
 104.5 624 195.5 708 299.5 733 c 0
 311.5 736 319.5 725 321.5 714 c 1
 324.5 716 326.5 717 330.5 717 c 0
 385.5 714 432.5 675 462.5 619 c 0
458.5 423 m 2
 459.5 423 l 2
 465.5 526 433.5 668 330.5 673 c 0
 319.5 673 314.5 682 313.5 692 c 1
 312.5 691 311.5 690 309.5 690 c 0
 211.5 667 124.5 585 90.5 468 c 0
 59.5 362 74.5 241 133.5 154 c 0
 181.5 84 299.5 -7 364.5 81 c 0
 395.5 123 412.5 185 426.5 238 c 0
 442.5 297 454.5 360 458.5 423 c 2
EndSplineSet
Validated: 33
EndChar

StartChar: one
Encoding: 49 49 44
Width: 136
Flags: HW
LayerCount: 2
Fore
SplineSet
53 716 m 0
 53 741 90 741 90 716 c 0
 87 483 83 250 80 17 c 0
 80 -8 44 -8 44 17 c 0
 47 250 50 483 53 716 c 0
EndSplineSet
Validated: 33
EndChar

StartChar: two
Encoding: 50 50 45
Width: 606
Flags: HW
LayerCount: 2
Fore
SplineSet
553.05859375 64 m 1
 577.05859375 65 576.05859375 25 553.05859375 24 c 0
 386.05859375 16 219.05859375 8 52.05859375 0 c 0
 31.05859375 -1 27.05859375 34 47.05859375 39 c 0
 221.05859375 83 373.05859375 211 454.05859375 385 c 0
 496.05859375 475 535.05859375 633 421.05859375 683 c 0
 324.05859375 725 194.05859375 677 110.05859375 620 c 0
 90.05859375 606 72.05859375 641 92.05859375 654 c 0
 178.05859375 713 288.05859375 749 390.05859375 732 c 0
 474.05859375 718 528.05859375 649 533.05859375 558 c 0
 538.05859375 465 494.05859375 369 447.05859375 294 c 0
 380.05859375 186 286.05859375 100 177.05859375 46 c 1
 303.05859375 52 428.05859375 58 553.05859375 64 c 1
EndSplineSet
Validated: 524321
EndChar

StartChar: three
Encoding: 51 51 46
Width: 551
Flags: HW
LayerCount: 2
Fore
SplineSet
405.466796875 392 m 1
 454.466796875 346 514.466796875 264 515.466796875 184 c 0
 516.466796875 95 435.466796875 63 380.466796875 36 c 0
 309.466796875 2 236.466796875 -12 165.466796875 25 c 0
 105.466796875 56 60.466796875 115 35.466796875 188 c 0
 26.466796875 215 61.466796875 226 70.466796875 200 c 0
 96.466796875 123 155.466796875 66 221.466796875 50 c 0
 292.466796875 33 374.466796875 73 436.466796875 114 c 0
 476.466796875 141 488.466796875 183 467.466796875 234 c 0
 452.466796875 271 430.466796875 307 405.466796875 335 c 0
 377.466796875 367 342.466796875 389 306.466796875 397 c 0
 271.466796875 384 234.466796875 374 198.466796875 368 c 0
 178.466796875 365 176.466796875 399 189.466796875 410 c 0
 223.466796875 439 263.466796875 449 302.466796875 443 c 0
 329.466796875 454 355.466796875 468 380.466796875 485 c 0
 406.466796875 503 437.466796875 525 446.466796875 563 c 0
 455.466796875 603 429.466796875 630 403.466796875 647 c 0
 306.466796875 712 182.466796875 697 92.466796875 621 c 0
 73.466796875 605 54.466796875 644 73.466796875 660 c 0
 131.466796875 709 201.466796875 734 271.466796875 733 c 0
 334.466796875 732 410.466796875 711 457.466796875 656 c 0
 512.466796875 591 475.466796875 506 421.466796875 463 c 0
 402.466796875 448 382.466796875 434 362.466796875 423 c 1
 378.466796875 415 392.466796875 404 405.466796875 392 c 1
EndSplineSet
Validated: 524321
EndChar

StartChar: four
Encoding: 52 52 47
Width: 698
Flags: HW
LayerCount: 2
Fore
SplineSet
648.271484375 319 m 2
 648.271484375 318 l 2
 669.271484375 320 669.271484375 283 648.271484375 281 c 0
 582.271484375 276 518.271484375 271 452.271484375 266 c 0
 451.271484375 184 450.271484375 102 449.271484375 20 c 0
 449.271484375 -4 417.271484375 -4 417.271484375 20 c 0
 418.271484375 101 418.271484375 182 419.271484375 263 c 1
 296.271484375 253 172.271484375 244 49.271484375 234 c 0
 33.271484375 233 30.271484375 255 38.271484375 266 c 0
 154.271484375 432 281.271484375 586 419.271484375 728 c 0
 435.271484375 744 458.271484375 718 442.271484375 702 c 0
 314.271484375 570 195.271484375 426 86.271484375 274 c 1
 197.271484375 283 308.271484375 291 419.271484375 300 c 0
 420.271484375 362 420.271484375 426 421.271484375 488 c 0
 421.271484375 512 453.271484375 512 453.271484375 488 c 0
 452.271484375 427 453.271484375 364 452.271484375 303 c 1
 517.271484375 308 583.271484375 314 648.271484375 319 c 2
EndSplineSet
Validated: 524321
EndChar

StartChar: five
Encoding: 53 53 48
Width: 699
Flags: HW
LayerCount: 2
Fore
SplineSet
654.020507812 316 m 2
 682.020507812 214 620.020507812 115 535.020507812 66 c 0
 445.020507812 13 319.020507812 -8 217.020507812 10 c 0
 125.020507812 26 40.0205078125 94 34.0205078125 195 c 0
 33.0205078125 219 69.0205078125 219 70.0205078125 195 c 0
 78.0205078125 65 225.020507812 35 326.020507812 45 c 0
 435.020507812 55 569.020507812 91 613.020507812 207 c 0
 657.020507812 322 557.020507812 435 456.020507812 470 c 0
 351.020507812 506 238.020507812 468 168.020507812 382 c 0
 155.020507812 366 136.020507812 384 138.020507812 400 c 0
 153.020507812 505 177.020507812 608 209.020507812 709 c 0
 206.020507812 720 212.020507812 733 226.020507812 733 c 0
 335.020507812 733 445.020507812 733 554.020507812 733 c 0
 578.020507812 733 577.020507812 696 554.020507812 696 c 0
 450.020507812 696 347.020507812 695 243.020507812 695 c 0
 217.020507812 614 197.020507812 532 182.020507812 449 c 1
 255.020507812 510 353.020507812 536 446.020507812 512 c 0
 539.020507812 488 628.020507812 414 654.020507812 316 c 2
EndSplineSet
Validated: 524321
EndChar

StartChar: six
Encoding: 54 54 49
Width: 542
Flags: HW
LayerCount: 2
Fore
SplineSet
471.668945312 284 m 1
 533.668945312 201 508.668945312 87 407.668945312 33 c 0
 308.668945312 -20 184.668945312 4 111.668945312 77 c 0
 23.6689453125 164 25.6689453125 282 55.6689453125 387 c 0
 90.6689453125 508 152.668945312 624 232.668945312 728 c 0
 248.668945312 749 288.668945312 729 272.668945312 708 c 0
 200.668945312 614 142.668945312 510 108.668945312 402 c 1
 243.668945312 424 396.668945312 384 471.668945312 284 c 1
200.668945312 63 m 1
 327.668945312 -1 490.668945312 97 455.668945312 218 c 0
 421.668945312 336 248.668945312 387 118.668945312 365 c 0
 110.668945312 364 103.668945312 366 98.6689453125 369 c 1
 69.6689453125 263 74.6689453125 126 200.668945312 63 c 1
EndSplineSet
Validated: 524321
EndChar

StartChar: seven
Encoding: 55 55 50
Width: 541
Flags: HW
LayerCount: 2
Fore
SplineSet
487.25 432 m 2
 488.25 432 l 2
 515.25 432 515.25 394 488.25 394 c 0
 453.25 393 418.25 393 383.25 393 c 0
 331.25 263 270.25 136 200.25 13 c 0
 188.25 -9 152.25 11 164.25 32 c 0
 231.25 149 289.25 270 339.25 393 c 1
 280.25 392 222.25 392 163.25 391 c 0
 136.25 391 136.25 429 163.25 429 c 0
 226.25 430 290.25 430 353.25 431 c 0
 363.25 456 373.25 481 382.25 506 c 0
 396.25 546 409.25 586 422.25 627 c 0
 425.25 638 443.25 675 432.25 683 c 0
 424.25 690 367.25 683 356.25 683 c 0
 255.25 684 155.25 685 54.25 686 c 0
 27.25 686 27.25 724 54.25 724 c 0
 175.25 723 296.25 723 417.25 721 c 0
 447.25 720 478.25 717 480.25 684 c 0
 481.25 666 471.25 647 466.25 630 c 0
 459.25 606 451.25 581 443.25 557 c 0
 429.25 515 414.25 474 398.25 432 c 1
 428.25 432 457.25 432 487.25 432 c 2
EndSplineSet
Validated: 33
EndChar

StartChar: eight
Encoding: 56 56 51
Width: 553
Flags: HW
LayerCount: 2
Fore
SplineSet
476.041992188 423 m 1
 475.041992188 423 l 1
 523.041992188 370 523.041992188 284 500.041992188 218 c 0
 473.041992188 144 418.041992188 89 356.041992188 53 c 0
 295.041992188 17 222.041992188 -8 153.041992188 12 c 0
 97.0419921875 29 46.0419921875 78 36.0419921875 144 c 0
 24.0419921875 220 67.0419921875 290 110.041992188 344 c 0
 150.041992188 394 198.041992188 432 249.041992188 463 c 1
 239.041992188 466 229.041992188 468 219.041992188 471 c 0
 181.041992188 481 139.041992188 487 103.041992188 505 c 0
 46.0419921875 533 35.0419921875 606 86.0419921875 650 c 0
 114.041992188 674 152.041992188 689 185.041992188 704 c 0
 216.041992188 718 249.041992188 728 282.041992188 733 c 0
 348.041992188 743 415.041992188 728 465.041992188 677 c 0
 468.041992188 674 469.041992188 671 470.041992188 668 c 1
 482.041992188 676 501.041992188 665 497.041992188 645 c 0
 480.041992188 564 421.041992188 513 358.041992188 477 c 1
 370.041992188 474 381.041992188 471 393.041992188 468 c 0
 423.041992188 460 453.041992188 448 476.041992188 423 c 1
123.041992188 540 m 1
 168.041992188 520 222.041992188 512 269.041992188 500 c 0
 280.041992188 497 290.041992188 495 301.041992188 492 c 0
 365.041992188 525 435.041992188 564 458.041992188 644 c 1
 452.041992188 641 445.041992188 642 439.041992188 648 c 0
 362.041992188 725 253.041992188 694 169.041992188 652 c 0
 151.041992188 643 131.041992188 635 114.041992188 622 c 0
 101.041992188 612 85.0419921875 594 89.0419921875 574 c 0
 92.0419921875 556 110.041992188 546 123.041992188 540 c 1
474.041992188 261 m 0
 484.041992188 305 480.041992188 360 450.041992188 394 c 0
 425.041992188 422 384.041992188 428 351.041992188 437 c 0
 336.041992188 441 321.041992188 444 306.041992188 448 c 0
 243.041992188 413 185.041992188 376 136.041992188 315 c 0
 87.0419921875 254 38.0419921875 161 101.041992188 90 c 0
 160.041992188 23 252.041992188 42 321.041992188 78 c 0
 390.041992188 114 455.041992188 174 474.041992188 261 c 0
EndSplineSet
Validated: 524321
EndChar

StartChar: nine
Encoding: 57 57 52
Width: 534
Flags: HW
LayerCount: 2
Fore
SplineSet
499.073242188 693 m 2
 498.073242188 676 495.073242188 662 489.073242188 649 c 0
 440.073242188 442 413.073242188 231 410.073242188 18 c 0
 410.073242188 -6 374.073242188 -6 374.073242188 18 c 0
 377.073242188 210 398.073242188 400 438.073242188 588 c 1
 394.073242188 558 335.073242188 542 287.073242188 529 c 0
 235.073242188 515 180.073242188 501 126.073242188 496 c 0
 93.0732421875 493 55.0732421875 499 41.0732421875 533 c 0
 9.0732421875 611 111.073242188 688 171.073242188 712 c 0
 266.073242188 750 369.073242188 730 464.073242188 700 c 0
 471.073242188 718 500.073242188 713 499.073242188 693 c 2
277.073242188 564 m 2
 278.073242188 564 l 2
 335.073242188 580 426.073242188 599 454.073242188 658 c 0
 455.073242188 660 454.073242188 662 455.073242188 664 c 0
 383.073242188 687 307.073242188 706 231.073242188 692 c 0
 169.073242188 681 96.0732421875 640 76.0732421875 576 c 0
 58.0732421875 517 131.073242188 532 163.073242188 538 c 0
 201.073242188 545 239.073242188 554 277.073242188 564 c 2
EndSplineSet
Validated: 524321
EndChar

StartChar: colon
Encoding: 58 58 53
Width: 152
Flags: HW
LayerCount: 2
Fore
SplineSet
92.744140625 523 m 1
 102.744140625 510 111.744140625 496 110.744140625 479 c 0
 109.744140625 463 99.744140625 446 82.744140625 441 c 0
 74.744140625 439 64.744140625 440 57.744140625 445 c 0
 50.744140625 450 44.744140625 457 41.744140625 465 c 0
 38.744140625 473 39.744140625 482 43.744140625 490 c 0
 47.744140625 497 53.744140625 501 60.744140625 504 c 1
 57.744140625 508 58.744140625 514 59.744140625 518 c 0
 60.744140625 523 63.744140625 526 67.744140625 529 c 0
 71.744140625 531 77.744140625 532 81.744140625 531 c 0
 86.744140625 530 89.744140625 527 92.744140625 523 c 1
95.744140625 66 m 2
 96.744140625 66 l 2
 105.744140625 58 111.744140625 45 110.744140625 33 c 0
 109.744140625 26 107.744140625 20 103.744140625 14 c 0
 98.744140625 8 92.744140625 2 84.744140625 1 c 0
 76.744140625 0 67.744140625 0 60.744140625 5 c 0
 55.744140625 8 52.744140625 12 49.744140625 16 c 0
 47.744140625 19 46.744140625 22 45.744140625 25 c 0
 42.744140625 32 42.744140625 40 43.744140625 48 c 0
 43.744140625 49 44.744140625 50 44.744140625 51 c 0
 43.744140625 52 43.744140625 53 42.744140625 54 c 0
 41.744140625 58 42.744140625 64 44.744140625 68 c 0
 46.744140625 72 51.744140625 76 55.744140625 77 c 0
 70.744140625 81 84.744140625 76 95.744140625 66 c 2
EndSplineSet
Validated: 524321
EndChar

StartChar: semicolon
Encoding: 59 59 54
Width: 168
Flags: HW
LayerCount: 2
Fore
SplineSet
122.333007812 497 m 0
 123.333007812 485 120.333007812 474 113.333007812 465 c 0
 112.333007812 464 112.333007812 462 111.333007812 461 c 0
 105.333007812 453 98.3330078125 446 89.3330078125 441 c 0
 83.3330078125 438 78.3330078125 438 72.3330078125 440 c 0
 67.3330078125 442 63.3330078125 446 62.3330078125 452 c 0
 61.3330078125 454 61.3330078125 456 60.3330078125 458 c 0
 57.3330078125 460 54.3330078125 463 52.3330078125 466 c 0
 46.3330078125 474 43.3330078125 487 47.3330078125 497 c 0
 51.3330078125 508 60.3330078125 516 71.3330078125 520 c 0
 73.3330078125 521 74.3330078125 521 76.3330078125 521 c 0
 77.3330078125 524 78.3330078125 526 80.3330078125 528 c 0
 87.3330078125 535 98.3330078125 534 105.333007812 528 c 0
 114.333007812 520 120.333007812 509 122.333007812 497 c 0
122.333007812 6 m 2
 122.333007812 5 l 2
 128.333007812 -17 132.333007812 -44 123.333007812 -65 c 0
 113.333007812 -89 79.3330078125 -95 64.3330078125 -72 c 0
 58.3330078125 -63 62.3330078125 -52 70.3330078125 -47 c 0
 76.3330078125 -43 84.3330078125 -44 90.3330078125 -48 c 1
 90.3330078125 -47 90.3330078125 -46 90.3330078125 -45 c 0
 90.3330078125 -42 l 2
 91.3330078125 -26 89.3330078125 -15 85.3330078125 0 c 0
 84.3330078125 2 84.3330078125 5 83.3330078125 7 c 1
 73.3330078125 0 57.3330078125 1 48.3330078125 10 c 0
 38.3330078125 20 37.3330078125 36 45.3330078125 47 c 0
 48.3330078125 51 51.3330078125 54 55.3330078125 56 c 0
 55.3330078125 57 55.3330078125 58 56.3330078125 59 c 0
 61.3330078125 67 73.3330078125 70 81.3330078125 65 c 0
 86.3330078125 62 90.3330078125 59 94.3330078125 55 c 0
 110.333007812 44 117.333007812 24 122.333007812 6 c 2
EndSplineSet
Validated: 524321
EndChar

StartChar: less
Encoding: 60 60 55
Width: 557
Flags: HW
LayerCount: 2
Fore
SplineSet
503.328125 182 m 0
 526.328125 178 516.328125 138 493.328125 142 c 0
 334.328125 174 181.328125 240 43.328125 337 c 0
 29.328125 347 34.328125 369 48.328125 375 c 0
 199.328125 443 346.328125 520 490.328125 607 c 0
 511.328125 620 530.328125 584 509.328125 571 c 0
 374.328125 489 235.328125 416 93.328125 351 c 1
 220.328125 267 359.328125 211 503.328125 182 c 0
EndSplineSet
Validated: 524321
EndChar

StartChar: equal
Encoding: 61 61 56
Width: 568
Flags: HW
LayerCount: 2
Fore
SplineSet
506 510 m 0
 531 511 531 474 506 473 c 0
 358 470 209 468 61 465 c 0
 36 464 36 500 61 501 c 0
 209 504 358 507 506 510 c 0
502 288 m 1
 526 293 535 258 511 253 c 0
 362 223 211 217 60 236 c 0
 36 239 36 275 60 272 c 0
 207 253 357 258 502 288 c 1
EndSplineSet
Validated: 33
EndChar

StartChar: greater
Encoding: 62 62 57
Width: 556
Flags: HW
LayerCount: 2
Fore
SplineSet
505.284179688 382 m 0
 522.284179688 378 523.284179688 352 509.284179688 343 c 0
 442.284179688 300 369.284179688 270 297.284179688 237 c 0
 222.284179688 202 149.284179688 168 74.2841796875 133 c 0
 51.2841796875 122 31.2841796875 159 54.2841796875 170 c 0
 129.284179688 205 202.284179688 239 277.284179688 274 c 0
 333.284179688 300 392.284179688 325 447.284179688 355 c 1
 302.284179688 399 165.284179688 471 44.2841796875 569 c 0
 24.2841796875 585 44.2841796875 621 64.2841796875 605 c 0
 195.284179688 498 345.284179688 423 505.284179688 382 c 0
EndSplineSet
Validated: 524321
EndChar

StartChar: question
Encoding: 63 63 58
Width: 522
Flags: HW
LayerCount: 2
Fore
SplineSet
257.549804688 733 m 1
 400.549804688 726 508.549804688 596 479.549804688 462 c 0
 466.549804688 400 423.549804688 343 366.549804688 311 c 0
 334.549804688 293 293.549804688 287 266.549804688 262 c 0
 239.549804688 237 231.549804688 200 241.549804688 166 c 0
 249.549804688 141 208.549804688 130 200.549804688 155 c 0
 177.549804688 229 222.549804688 294 293.549804688 323 c 0
 332.549804688 339 367.549804688 355 395.549804688 387 c 0
 421.549804688 417 439.549804688 455 442.549804688 494 c 0
 448.549804688 577 391.549804688 659 307.549804688 684 c 0
 212.549804688 712 131.549804688 670 68.5498046875 604 c 0
 50.5498046875 585 20.5498046875 613 38.5498046875 632 c 0
 97.5498046875 693 167.549804688 737 257.549804688 733 c 1
281.549804688 68 m 2
 286.549804688 57 287.549804688 44 283.549804688 32 c 0
 278.549804688 18 268.549804688 8 254.549804688 3 c 0
 240.549804688 -2 225.549804688 1 212.549804688 7 c 0
 200.549804688 13 190.549804688 24 184.549804688 35 c 0
 184.549804688 36 183.549804688 36 183.549804688 37 c 1
 175.549804688 33 165.549804688 37 160.549804688 44 c 0
 154.549804688 53 158.549804688 63 166.549804688 69 c 0
 170.549804688 72 175.549804688 74 180.549804688 77 c 0
 180.549804688 78 l 2
 187.549804688 91 202.549804688 95 215.549804688 91 c 0
 227.549804688 94 239.549804688 94 251.549804688 91 c 0
 263.549804688 88 276.549804688 80 281.549804688 68 c 2
248.549804688 52 m 1
 248.549804688 52 l 1
EndSplineSet
Validated: 524321
EndChar

StartChar: at
Encoding: 64 64 59
Width: 974
Flags: HW
LayerCount: 2
Fore
SplineSet
939.321289062 -23 m 2
 951.321289062 -80 907.321289062 -113 859.321289062 -133 c 0
 790.321289062 -162 717.321289062 -183 643.321289062 -195 c 0
 507.321289062 -216 365.321289062 -204 241.321289062 -143 c 0
 129.321289062 -88 68.3212890625 2 51.3212890625 124 c 0
 34.3212890625 247 27.3212890625 385 69.3212890625 503 c 0
 105.321289062 604 179.321289062 687 285.321289062 718 c 0
 393.321289062 749 513.321289062 728 615.321289062 686 c 0
 717.321289062 644 807.321289062 572 848.321289062 468 c 0
 886.321289062 371 874.321289062 255 798.321289062 179 c 0
 735.321289062 116 615.321289062 89 556.321289062 172 c 0
 539.321289062 196 531.321289062 224 528.321289062 252 c 1
 511.321289062 217 490.321289062 184 461.321289062 159 c 0
 391.321289062 98 275.321289062 81 214.321289062 164 c 0
 148.321289062 254 195.321289062 369 273.321289062 434 c 0
 320.321289062 472 376.321289062 496 432.321289062 516 c 0
 476.321289062 532 527.321289062 544 563.321289062 507 c 0
 564.321289062 506 563.321289062 506 564.321289062 505 c 1
 565.321289062 508 566.321289062 510 567.321289062 513 c 0
 575.321289062 536 612.321289062 528 605.321289062 503 c 0
 594.321289062 462 584.321289062 415 571.321289062 369 c 0
 569.321289062 353 567.321289062 339 566.321289062 323 c 0
 563.321289062 273 562.321289062 204 611.321289062 173 c 0
 659.321289062 143 723.321289062 165 762.321289062 199 c 0
 801.321289062 234 824.321289062 282 829.321289062 334 c 0
 848.321289062 536 643.321289062 661 467.321289062 688 c 0
 372.321289062 703 266.321289062 690 192.321289062 623 c 0
 119.321289062 557 88.3212890625 459 81.3212890625 364 c 0
 74.3212890625 268 76.3212890625 158 104.321289062 65 c 0
 135.321289062 -39 221.321289062 -99 320.321289062 -133 c 0
 418.321289062 -167 523.321289062 -173 625.321289062 -158 c 0
 675.321289062 -151 724.321289062 -139 772.321289062 -123 c 0
 808.321289062 -111 913.321289062 -88 901.321289062 -33 c 0
 895.321289062 -8 934.321289062 2 939.321289062 -23 c 2
270.321289062 164 m 0
 349.321289062 108 444.321289062 181 482.321289062 250 c 0
 506.321289062 293 522.321289062 341 535.321289062 390 c 0
 539.321289062 418 546.321289062 447 554.321289062 475 c 1
 548.321289062 472 540.321289062 473 534.321289062 479 c 0
 503.321289062 511 438.321289062 478 405.321289062 464 c 0
 361.321289062 446 317.321289062 423 283.321289062 389 c 0
 224.321289062 332 190.321289062 221 270.321289062 164 c 0
EndSplineSet
Validated: 524321
EndChar

StartChar: A
Encoding: 65 65 60
Width: 616
Flags: HW
LayerCount: 2
Fore
SplineSet
578.9609375 23 m 1
 586.9609375 0 550.9609375 -10 542.9609375 13 c 0
 512.9609375 98 483.9609375 182 453.9609375 267 c 0
 354.9609375 259 254.9609375 251 155.9609375 243 c 0
 141.9609375 207 126.9609375 172 111.9609375 137 c 0
 96.9609375 101 82.9609375 65 66.9609375 30 c 0
 56.9609375 8 25.9609375 27 35.9609375 49 c 0
 50.9609375 83 64.9609375 118 78.9609375 153 c 0
 90.9609375 183 103.9609375 214 114.9609375 244 c 0
 103.9609375 252 105.9609375 277 124.9609375 278 c 0
 125.9609375 278 126.9609375 278 127.9609375 278 c 0
 176.9609375 412 216.9609375 549 248.9609375 689 c 0
 253.9609375 712 285.9609375 704 283.9609375 682 c 1
 288.9609375 695 293.9609375 707 298.9609375 720 c 0
 305.9609375 737 327.9609375 738 333.9609375 720 c 2
 478.9609375 306 l 2
 493.9609375 305 497.9609375 287 489.9609375 276 c 2
 578.9609375 23 l 1
171.9609375 282 m 1
 261.9609375 289 351.9609375 296 441.9609375 303 c 1
 315.9609375 662 l 1
 268.9609375 535 221.9609375 408 171.9609375 282 c 1
EndSplineSet
Validated: 524321
EndChar

StartChar: B
Encoding: 66 66 61
Width: 670
Flags: HW
LayerCount: 2
Fore
SplineSet
488.08203125 376 m 2
 489.08203125 375 l 2
 566.08203125 350 652.08203125 290 626.08203125 188 c 0
 598.08203125 82 485.08203125 52 398.08203125 39 c 0
 336.08203125 30 274.08203125 29 212.08203125 37 c 1
 213.08203125 33 212.08203125 29 213.08203125 25 c 0
 216.08203125 0 182.08203125 -11 178.08203125 14 c 0
 177.08203125 24 175.08203125 33 174.08203125 43 c 0
 143.08203125 49 111.08203125 56 81.08203125 66 c 0
 58.08203125 73 68.08203125 112 91.08203125 105 c 0
 117.08203125 97 143.08203125 90 169.08203125 85 c 1
 160.08203125 167 156.08203125 249 155.08203125 331 c 0
 143.08203125 337 145.08203125 357 155.08203125 365 c 0
 156.08203125 436 160.08203125 506 167.08203125 577 c 1
 130.08203125 555 94.08203125 529 59.08203125 502 c 0
 40.08203125 487 22.08203125 521 41.08203125 536 c 0
 83.08203125 568 125.08203125 600 171.08203125 625 c 0
 175.08203125 656 179.08203125 687 184.08203125 718 c 0
 188.08203125 743 223.08203125 733 219.08203125 708 c 0
 216.08203125 687 213.08203125 664 210.08203125 643 c 1
 242.08203125 657 277.08203125 668 313.08203125 671 c 0
 396.08203125 679 488.08203125 642 530.08203125 559 c 0
 549.08203125 521 556.08203125 473 538.08203125 433 c 0
 527.08203125 408 509.08203125 390 488.08203125 376 c 2
268.08203125 623 m 2
 267.08203125 623 l 2
 245.08203125 617 225.08203125 609 205.08203125 599 c 0
 197.08203125 526 192.08203125 452 191.08203125 378 c 1
 269.08203125 401 351.08203125 405 431.08203125 390 c 0
 459.08203125 401 488.08203125 416 503.08203125 445 c 0
 523.08203125 485 506.08203125 534 481.08203125 566 c 0
 428.08203125 632 342.08203125 643 268.08203125 623 c 2
582.08203125 178 m 1
 583.08203125 177 l 1
 636.08203125 283 506.08203125 334 434.08203125 349 c 0
 357.08203125 321 272.08203125 316 192.08203125 325 c 1
 193.08203125 243 198.08203125 161 207.08203125 79 c 0
 255.08203125 73 302.08203125 71 351.08203125 75 c 0
 428.08203125 82 541.08203125 96 582.08203125 178 c 1
EndSplineSet
Validated: 524321
EndChar

StartChar: C
Encoding: 67 67 62
Width: 719
Flags: HW
LayerCount: 2
Fore
SplineSet
647.063476562 224 m 2
 660.063476562 244 692.063476562 225 679.063476562 205 c 0
 605.063476562 87 486.063476562 -25 338.063476562 5 c 0
 224.063476562 28 118.063476562 130 69.0634765625 235 c 0
 18.0634765625 345 26.0634765625 481 93.0634765625 582 c 0
 156.063476562 676 265.063476562 734 376.063476562 733 c 0
 489.063476562 732 594.063476562 669 656.063476562 574 c 0
 669.063476562 554 638.063476562 535 625.063476562 555 c 0
 561.063476562 652 445.063476562 711 331.063476562 693 c 0
 111.063476562 659 3.0634765625 399 125.063476562 210 c 0
 180.063476562 125 276.063476562 40 380.063476562 38 c 0
 498.063476562 35 587.063476562 130 647.063476562 224 c 2
EndSplineSet
Validated: 524321
EndChar

StartChar: D
Encoding: 68 68 63
Width: 758
Flags: HW
LayerCount: 2
Fore
SplineSet
696.142578125 549 m 1
 697.142578125 549 l 1
 741.142578125 431 706.142578125 294 640.142578125 195 c 0
 572.142578125 94 473.142578125 31 362.142578125 11 c 0
 253.142578125 -9 118.142578125 -9 39.142578125 90 c 0
 23.142578125 109 48.142578125 139 64.142578125 119 c 0
 118.142578125 52 205.142578125 35 289.142578125 41 c 0
 291.142578125 234 275.142578125 430 262.142578125 623 c 1
 209.142578125 599 160.142578125 566 116.142578125 525 c 0
 98.142578125 508 73.142578125 536 91.142578125 553 c 0
 141.142578125 600 199.142578125 639 260.142578125 666 c 0
 259.142578125 682 257.142578125 698 256.142578125 714 c 0
 255.142578125 740 292.142578125 740 293.142578125 714 c 0
 294.142578125 702 294.142578125 691 295.142578125 679 c 1
 344.142578125 697 396.142578125 707 448.142578125 708 c 0
 553.142578125 709 654.142578125 662 696.142578125 549 c 1
628.142578125 246 m 2
 628.142578125 247 l 2
 680.142578125 341 704.142578125 469 647.142578125 568 c 0
 592.142578125 663 481.142578125 678 389.142578125 662 c 0
 358.142578125 656 328.142578125 648 298.142578125 637 c 0
 311.142578125 440 327.142578125 242 326.142578125 45 c 1
 353.142578125 49 379.142578125 54 402.142578125 61 c 0
 496.142578125 89 577.142578125 154 628.142578125 246 c 2
EndSplineSet
Validated: 524321
EndChar

StartChar: E
Encoding: 69 69 64
Width: 562
Flags: HW
LayerCount: 2
Fore
SplineSet
508.208984375 82 m 2
 531.208984375 81 531.208984375 43 508.208984375 44 c 0
 368.208984375 47 229.208984375 32 93.208984375 1 c 0
 84.208984375 -1 77.208984375 3 73.208984375 10 c 0
 63.208984375 7 50.208984375 13 49.208984375 27 c 0
 40.208984375 124 38.208984375 222 45.208984375 319 c 0
 49.208984375 366 53.208984375 415 60.208984375 464 c 2
 65.208984375 673 l 2
 66.208984375 697 103.208984375 697 102.208984375 673 c 0
 101.208984375 654 102.208984375 635 101.208984375 616 c 1
 128.208984375 667 171.208984375 694 230.208984375 709 c 0
 317.208984375 731 408.208984375 737 497.208984375 730 c 0
 520.208984375 728 520.208984375 690 497.208984375 692 c 0
 413.208984375 699 328.208984375 694 246.208984375 674 c 0
 212.208984375 666 176.208984375 656 151.208984375 628 c 0
 128.208984375 603 119.208984375 566 112.208984375 533 c 0
 106.208984375 505 100.208984375 476 96.208984375 447 c 0
 95.208984375 424 95.208984375 400 94.208984375 377 c 1
 223.208984375 384 353.208984375 391 482.208984375 398 c 0
 506.208984375 399 505.208984375 361 482.208984375 360 c 0
 352.208984375 353 223.208984375 346 93.208984375 339 c 0
 90.208984375 239 88.208984375 138 85.208984375 38 c 1
 224.208984375 70 366.208984375 85 508.208984375 82 c 2
EndSplineSet
Validated: 524321
EndChar

StartChar: F
Encoding: 70 70 65
Width: 551
Flags: HW
LayerCount: 2
Fore
SplineSet
494.528320312 733 m 1
 493.528320312 733 l 1
 522.528320312 733 522.528320312 695 493.528320312 695 c 0
 401.528320312 696 303.528320312 697 220.528320312 658 c 0
 140.528320312 621 111.528320312 557 103.528320312 485 c 0
 99.5283203125 449 97.5283203125 412 96.5283203125 375 c 1
 210.528320312 392 324.528320312 410 438.528320312 427 c 0
 467.528320312 431 479.528320312 395 450.528320312 391 c 0
 332.528320312 373 214.528320312 356 96.5283203125 338 c 0
 96.5283203125 338 96.5283203125 338 95.5283203125 338 c 0
 94.5283203125 231 103.528320312 123 117.528320312 17 c 0
 120.528320312 -4 76.5283203125 -9 72.5283203125 12 c 0
 72.5283203125 14 71.5283203125 15 71.5283203125 17 c 1
 71.5283203125 18 71.5283203125 18 71.5283203125 19 c 0
 34.5283203125 243 29.5283203125 469 59.5283203125 694 c 0
 62.5283203125 718 108.528320312 718 105.528320312 694 c 0
 101.528320312 664 98.5283203125 635 95.5283203125 605 c 1
 168.528320312 717 343.528320312 734 494.528320312 733 c 1
EndSplineSet
Validated: 524321
EndChar

StartChar: G
Encoding: 71 71 66
Width: 727
Flags: HW
LayerCount: 2
Fore
SplineSet
651 367 m 2
 688 252 695 131 673 13 c 0
 669 -10 633 0 637 23 c 0
 657 129 651 237 621 341 c 0
 597 335 574 331 550 326 c 1
 606 284 611 207 583 147 c 0
 522 18 336 -22 208 21 c 0
 63 70 36 257 36 388 c 0
 36 524 100 673 240 720 c 0
 394 772 537 662 619 543 c 0
 632 524 601 506 588 525 c 0
 510 638 364 746 222 673 c 0
 112 616 70 490 72 375 c 0
 74 266 95 97 217 56 c 0
 325 20 485 46 544 151 c 0
 577 210 568 290 496 314 c 0
 495 315 494 315 493 315 c 0
 432 304 371 295 309 288 c 0
 287 286 286 316 304 323 c 0
 364 346 433 368 496 352 c 0
 540 360 584 369 628 380 c 0
 638 382 648 376 651 367 c 2
EndSplineSet
Validated: 33
EndChar

StartChar: H
Encoding: 72 72 67
Width: 605
Flags: HW
LayerCount: 2
Fore
SplineSet
549.532226562 446 m 1
 568.532226562 445 568.532226562 414 548.532226562 409 c 0
 544.532226562 280 543.532226562 150 547.532226562 21 c 0
 548.532226562 -4 511.532226562 -3 510.532226562 21 c 0
 506.532226562 149 507.532226562 276 511.532226562 404 c 1
 394.532226562 388 276.532226562 372 159.532226562 356 c 0
 137.532226562 353 113.532226562 352 96.5322265625 340 c 0
 98.5322265625 233 98.5322265625 125 96.5322265625 18 c 0
 95.5322265625 -7 61.5322265625 -6 59.5322265625 18 c 0
 52.5322265625 99 44.5322265625 181 39.5322265625 262 c 0
 37.5322265625 296 40.5322265625 332 59.5322265625 357 c 0
 56.5322265625 476 51.5322265625 595 43.5322265625 713 c 0
 41.5322265625 737 77.5322265625 737 79.5322265625 713 c 0
 87.5322265625 603 92.5322265625 494 95.5322265625 384 c 0
 127.532226562 395 164.532226562 396 197.532226562 400 c 0
 236.532226562 405 274.532226562 410 313.532226562 415 c 0
 379.532226562 424 446.532226562 433 512.532226562 442 c 0
 515.532226562 533 519.532226562 624 526.532226562 715 c 0
 528.532226562 739 565.532226562 739 563.532226562 715 c 0
 556.532226562 625 552.532226562 536 549.532226562 446 c 1
EndSplineSet
Validated: 524321
EndChar

StartChar: I
Encoding: 73 73 68
Width: 668
Flags: HW
LayerCount: 2
Fore
SplineSet
614.626953125 723 m 0
 638.626953125 724 637.626953125 688 614.626953125 687 c 0
 533.626953125 684 451.626953125 682 370.626953125 683 c 0
 299.626953125 478 258.626953125 266 249.626953125 50 c 1
 349.626953125 57 448.626953125 65 547.626953125 78 c 0
 570.626953125 81 570.626953125 45 547.626953125 42 c 0
 383.626953125 21 218.626953125 9 53.626953125 4 c 0
 29.626953125 3 30.626953125 39 53.626953125 40 c 0
 106.626953125 41 160.626953125 44 213.626953125 47 c 0
 213.626953125 48 212.626953125 49 212.626953125 50 c 0
 221.626953125 266 262.626953125 479 332.626953125 684 c 1
 259.626953125 685 186.626953125 688 113.626953125 693 c 0
 90.626953125 694 90.626953125 731 113.626953125 730 c 0
 280.626953125 719 447.626953125 716 614.626953125 723 c 0
EndSplineSet
Validated: 524321
EndChar

StartChar: J
Encoding: 74 74 69
Width: 555
Flags: HW
LayerCount: 2
Fore
SplineSet
503.317382812 733 m 1
 502.317382812 733 l 1
 526.317382812 733 525.317382812 695 502.317382812 695 c 0
 461.317382812 694 420.317382812 694 379.317382812 693 c 1
 387.317382812 578 395.317382812 462 398.317382812 346 c 0
 401.317382812 251 407.317382812 127 351.317382812 46 c 0
 298.317382812 -30 208.317382812 -1 153.317382812 55 c 0
 89.3173828125 121 48.3173828125 208 35.3173828125 301 c 0
 31.3173828125 325 66.3173828125 336 70.3173828125 311 c 0
 82.3173828125 228 116.317382812 151 172.317382812 90 c 0
 200.317382812 60 238.317382812 29 280.317382812 39 c 0
 322.317382812 49 339.317382812 96 348.317382812 135 c 0
 370.317382812 227 363.317382812 325 359.317382812 419 c 0
 355.317382812 510 348.317382812 601 342.317382812 692 c 0
 266.317382812 691 190.317382812 689 114.317382812 688 c 0
 90.3173828125 688 91.3173828125 726 114.317382812 726 c 0
 244.317382812 728 373.317382812 731 503.317382812 733 c 1
EndSplineSet
Validated: 524325
EndChar

StartChar: K
Encoding: 75 75 70
Width: 575
Flags: HW
LayerCount: 2
Fore
SplineSet
512.080078125 730 m 2
 513.080078125 730 l 2
 533.080078125 743 551.080078125 711 531.080078125 698 c 0
 396.080078125 607 280.080078125 486 165.080078125 370 c 1
 231.080078125 385 301.080078125 372 358.080078125 325 c 0
 448.080078125 252 476.080078125 135 501.080078125 26 c 0
 506.080078125 3 471.080078125 -7 466.080078125 16 c 0
 445.080078125 109 422.080078125 208 354.080078125 278 c 0
 281.080078125 353 180.080078125 354 95.080078125 300 c 0
 94.080078125 299 93.080078125 299 92.080078125 299 c 0
 88.080078125 210 82.080078125 121 74.080078125 32 c 0
 72.080078125 8 36.080078125 8 38.080078125 32 c 0
 58.080078125 260 68.080078125 486 50.080078125 714 c 0
 48.080078125 738 84.080078125 738 86.080078125 714 c 0
 96.080078125 592 98.080078125 472 94.080078125 351 c 1
 227.080078125 483 357.080078125 626 512.080078125 730 c 2
EndSplineSet
Validated: 524321
EndChar

StartChar: L
Encoding: 76 76 71
Width: 648
Flags: HW
LayerCount: 2
Fore
SplineSet
594.295898438 102 m 2
 617.295898438 100 617.295898438 65 594.295898438 67 c 0
 470.295898438 77 345.295898438 70 224.295898438 42 c 0
 198.295898438 36 172.295898438 29 146.295898438 21 c 0
 123.295898438 14 99.2958984375 1 74.2958984375 0 c 0
 33.2958984375 -1 32.2958984375 31 39.2958984375 60 c 0
 97.2958984375 285 176.295898438 506 266.295898438 721 c 0
 275.295898438 741 310.295898438 733 301.295898438 712 c 0
 220.295898438 519 151.295898438 322 94.2958984375 121 c 0
 90.2958984375 108 87.2958984375 96 83.2958984375 83 c 0
 80.2958984375 73 71.2958984375 55 73.2958984375 45 c 0
 76.2958984375 33 78.2958984375 35 92.2958984375 40 c 0
 105.295898438 44 117.295898438 49 130.295898438 53 c 0
 179.295898438 68 229.295898438 80 280.295898438 89 c 0
 384.295898438 107 489.295898438 110 594.295898438 102 c 2
EndSplineSet
Validated: 524321
EndChar

StartChar: M
Encoding: 77 77 72
Width: 796
Flags: HW
LayerCount: 2
Fore
SplineSet
759.095703125 30 m 1
 758.095703125 30 l 1
 769.095703125 7 736.095703125 -13 725.095703125 10 c 0
 628.095703125 219 699.095703125 460 624.095703125 672 c 1
 537.095703125 535 464.095703125 389 409.095703125 235 c 0
 404.095703125 222 388.095703125 215 377.095703125 226 c 0
 273.095703125 340 201.095703125 481 169.095703125 633 c 1
 109.095703125 465 150.095703125 273 72.095703125 108 c 0
 64.095703125 91 34.095703125 98 36.095703125 117 c 0
 54.095703125 289 70.095703125 461 88.095703125 633 c 0
 91.095703125 658 130.095703125 658 127.095703125 633 c 0
 126.095703125 629 126.095703125 626 126.095703125 622 c 1
 134.095703125 652 145.095703125 680 160.095703125 708 c 0
 167.095703125 721 193.095703125 721 195.095703125 704 c 0
 217.095703125 546 283.095703125 398 385.095703125 277 c 1
 444.095703125 434 520.095703125 584 612.095703125 724 c 0
 619.095703125 735 639.095703125 738 645.095703125 724 c 0
 741.095703125 503 658.095703125 248 759.095703125 30 c 1
EndSplineSet
Validated: 524321
EndChar

StartChar: N
Encoding: 78 78 73
Width: 659
Flags: HW
LayerCount: 2
Fore
SplineSet
601.8671875 689 m 1
 596.8671875 478 601.8671875 267 616.8671875 56 c 0
 618.8671875 33 588.8671875 30 576.8671875 45 c 0
 426.8671875 235 282.8671875 430 143.8671875 628 c 1
 120.8671875 426 110.8671875 223 114.8671875 20 c 0
 115.8671875 -3 77.8671875 -8 72.8671875 15 c 0
 18.8671875 246 41.8671875 481 67.8671875 714 c 0
 70.8671875 740 114.8671875 741 111.8671875 714 c 0
 110.8671875 708 109.8671875 701 108.8671875 695 c 1
 116.8671875 708 135.8671875 713 146.8671875 697 c 0
 281.8671875 502 423.8671875 311 569.8671875 123 c 1
 558.8671875 311 554.8671875 500 558.8671875 689 c 0
 559.8671875 716 602.8671875 716 601.8671875 689 c 1
EndSplineSet
Validated: 524321
EndChar

StartChar: O
Encoding: 79 79 74
Width: 761
Flags: HW
LayerCount: 2
Fore
SplineSet
690.89453125 504 m 1
 690.89453125 503 l 1
 746.89453125 361 719.89453125 176 604.89453125 66 c 0
 474.89453125 -59 290.89453125 11 174.89453125 117 c 0
 56.89453125 226 -13.10546875 398 73.89453125 544 c 0
 106.89453125 599 182.89453125 675 262.89453125 709 c 0
 264.89453125 713 267.89453125 717 273.89453125 719 c 0
 455.89453125 775 626.89453125 666 690.89453125 504 c 1
630.89453125 159 m 2
 631.89453125 159 l 2
 699.89453125 275 700.89453125 425 632.89453125 541 c 0
 588.89453125 617 517.89453125 672 434.89453125 691 c 1
 437.89453125 688 441.89453125 685 444.89453125 681 c 0
 459.89453125 664 433.89453125 639 418.89453125 656 c 0
 357.89453125 726 260.89453125 676 202.89453125 631 c 0
 140.89453125 583 88.89453125 523 74.89453125 445 c 0
 49.89453125 303 147.89453125 169 264.89453125 91 c 0
 325.89453125 51 399.89453125 23 474.89453125 37 c 0
 545.89453125 50 596.89453125 101 630.89453125 159 c 2
EndSplineSet
Validated: 524321
EndChar

StartChar: P
Encoding: 80 80 75
Width: 629
Flags: HW
LayerCount: 2
Fore
SplineSet
584.548828125 526 m 0
 612.548828125 413 509.548828125 320 403.548828125 298 c 0
 339.548828125 285 273.548828125 289 209.548828125 300 c 0
 167.548828125 307 128.548828125 321 97.548828125 346 c 1
 94.548828125 236 90.548828125 127 87.548828125 17 c 0
 86.548828125 -6 53.548828125 -5 50.548828125 17 c 0
 27.548828125 191 51.548828125 369 65.548828125 543 c 0
 66.548828125 548 66.548828125 553 67.548828125 558 c 0
 68.548828125 592 68.548828125 626 69.548828125 659 c 0
 70.548828125 677 93.548828125 680 102.548828125 669 c 1
 109.548828125 678 117.548828125 687 127.548828125 695 c 0
 172.548828125 730 231.548828125 739 287.548828125 731 c 0
 401.548828125 715 555.548828125 643 584.548828125 526 c 0
549.548828125 462 m 0
 562.548828125 515 534.548828125 567 493.548828125 602 c 0
 450.548828125 639 394.548828125 664 340.548828125 682 c 0
 287.548828125 699 228.548828125 707 176.548828125 683 c 0
 121.548828125 657 108.548828125 610 103.548828125 557 c 0
 102.548828125 503 99.548828125 448 98.548828125 394 c 0
 99.548828125 393 101.548828125 392 102.548828125 391 c 0
 139.548828125 343 209.548828125 334 267.548828125 328 c 0
 330.548828125 322 398.548828125 323 456.548828125 353 c 0
 500.548828125 376 538.548828125 415 549.548828125 462 c 0
EndSplineSet
Validated: 524321
EndChar

StartChar: Q
Encoding: 81 81 76
Width: 730
Flags: HW
LayerCount: 2
Fore
SplineSet
685.482421875 -95 m 2
 703.482421875 -111 677.482421875 -138 659.482421875 -122 c 0
 607.482421875 -76 559.482421875 -25 517.482421875 31 c 0
 419.482421875 -18 297.482421875 -6 207.482421875 59 c 0
 81.482421875 149 10.482421875 325 44.482421875 484 c 0
 61.482421875 566 113.482421875 637 178.482421875 675 c 0
 179.482421875 678 181.482421875 680 184.482421875 682 c 0
 333.482421875 784 524.482421875 729 618.482421875 574 c 0
 703.482421875 433 713.482421875 229 604.482421875 99 c 0
 588.482421875 79 569.482421875 63 549.482421875 50 c 1
 589.482421875 -3 635.482421875 -51 685.482421875 -95 c 2
287.482421875 58 m 1
 355.482421875 31 430.482421875 33 493.482421875 63 c 1
 470.482421875 96 448.482421875 131 429.482421875 167 c 0
 417.482421875 189 448.482421875 208 460.482421875 186 c 0
 480.482421875 149 502.482421875 115 526.482421875 82 c 0
 561.482421875 106 592.482421875 138 613.482421875 180 c 0
 679.482421875 311 647.482421875 491 555.482421875 599 c 0
 499.482421875 665 420.482421875 697 342.482421875 694 c 1
 355.482421875 690 368.482421875 685 380.482421875 678 c 0
 401.482421875 667 382.482421875 634 361.482421875 645 c 0
 288.482421875 685 201.482421875 664 144.482421875 603 c 0
 88.482421875 543 66.482421875 455 73.482421875 372 c 0
 84.482421875 238 166.482421875 105 287.482421875 58 c 1
EndSplineSet
Validated: 524321
EndChar

StartChar: R
Encoding: 82 82 77
Width: 689
Flags: HW
LayerCount: 2
Fore
SplineSet
640.047851562 39 m 1
 639.047851562 38 l 1
 664.047851562 30 654.047851562 -7 628.047851562 1 c 0
 579.047851562 17 564.047851562 60 546.047851562 100 c 0
 521.047851562 157 493.047851562 213 445.047851562 257 c 0
 397.047851562 301 338.047851562 330 275.047851562 343 c 0
 214.047851562 335 153.047851562 332 92.0478515625 333 c 1
 94.0478515625 241 96.0478515625 149 98.0478515625 57 c 0
 99.0478515625 32 59.0478515625 33 56.0478515625 57 c 0
 43.0478515625 166 38.0478515625 281 49.0478515625 392 c 0
 47.0478515625 496 45.0478515625 598 43.0478515625 702 c 0
 42.0478515625 727 84.0478515625 727 85.0478515625 702 c 0
 86.0478515625 656 87.0478515625 611 88.0478515625 565 c 1
 116.047851562 630 162.047851562 687 235.047851562 716 c 0
 331.047851562 754 442.047851562 729 501.047851562 648 c 0
 558.047851562 569 537.047851562 458 456.047851562 400 c 0
 427.047851562 379 394.047851562 367 359.047851562 358 c 1
 383.047851562 348 406.047851562 336 427.047851562 322 c 0
 474.047851562 291 512.047851562 251 540.047851562 205 c 0
 556.047851562 178 569.047851562 150 582.047851562 122 c 0
 594.047851562 94 605.047851562 50 640.047851562 39 c 1
99.0478515625 449 m 1
 96.0478515625 429 94.0478515625 409 92.0478515625 389 c 0
 92.0478515625 385 92.0478515625 381 92.0478515625 377 c 1
 153.047851562 392 216.047851562 393 277.047851562 382 c 0
 285.047851562 383 294.047851562 384 302.047851562 385 c 0
 367.047851562 396 434.047851562 416 469.047851562 472 c 0
 537.047851562 581 434.047851562 713 300.047851562 693 c 0
 169.047851562 673 116.047851562 556 99.0478515625 449 c 1
EndSplineSet
Validated: 524321
EndChar

StartChar: glyph78
Encoding: 256 8216 78
Width: 187
VWidth: 0
Flags: HW
LayerCount: 2
Fore
SplineSet
110.408203125 603 m 1
 110.408203125 604 l 1
 135.408203125 601 150.408203125 572 144.408203125 544 c 0
 140.408203125 523 124.408203125 509 107.408203125 508 c 0
 100.408203125 506 93.408203125 506 86.408203125 508 c 0
 63.408203125 516 51.408203125 542 45.408203125 569 c 0
 34.408203125 620 40.408203125 675 61.408203125 721 c 0
 67.408203125 733 81.408203125 737 91.408203125 730 c 0
 101.408203125 723 105.408203125 706 99.408203125 694 c 0
 93.408203125 681 90.408203125 672 87.408203125 656 c 0
 86.408203125 652 86.408203125 649 85.408203125 645 c 0
 85.408203125 645 84.408203125 643 84.408203125 642 c 0
 84.408203125 641 84.408203125 639 84.408203125 639 c 2
 83.408203125 632 83.408203125 625 83.408203125 618 c 0
 83.408203125 609 84.408203125 602 85.408203125 595 c 1
 92.408203125 601 101.408203125 604 110.408203125 603 c 1
EndSplineSet
Validated: 524321
EndChar

StartChar: glyph79
Encoding: 257 8217 79
Width: 191
VWidth: 0
Flags: HW
LayerCount: 2
Fore
SplineSet
144.12890625 697 m 0
 153.12890625 679 152.12890625 660 146.12890625 641 c 0
 135.12890625 604 123.12890625 568 111.12890625 531 c 0
 103.12890625 505 56.12890625 515 64.12890625 542 c 0
 73.12890625 569 81.12890625 595 90.12890625 622 c 0
 93.12890625 632 96.12890625 642 99.12890625 652 c 1
 95.12890625 651 93.12890625 651 89.12890625 651 c 0
 83.12890625 648 75.12890625 646 67.12890625 646 c 0
 59.12890625 646 49.12890625 650 46.12890625 656 c 0
 36.12890625 676 33.12890625 700 50.12890625 718 c 0
 66.12890625 735 92.12890625 738 112.12890625 726 c 0
 114.12890625 725 117.12890625 722 119.12890625 720 c 0
 130.12890625 715 139.12890625 707 144.12890625 697 c 0
EndSplineSet
Validated: 524321
EndChar

StartChar: glyph80
Encoding: 258 8220 80
Width: 342
VWidth: 0
Flags: HW
LayerCount: 2
Fore
SplineSet
80 558 m 1
 80 559 l 1
 80 558 l 1
88 646 m 1
 89 647 l 1
 84 634 81 619 79 605 c 0
 79 603 78 600 78 598 c 1
 79 598 79 598 80 598 c 0
 86 598 93 595 98 592 c 0
 101 593 103 594 107 594 c 0
 120 593 131 579 131 564 c 0
 131 538 105 518 84 516 c 0
 83 516 81 516 80 516 c 0
 78 516 76 517 74 517 c 0
 73 517 73 517 72 517 c 0
 72 517 72 518 71 518 c 0
 67 519 64 521 61 523 c 0
 58 525 55 528 53 531 c 0
 52 532 51 531 51 532 c 0
 43 543 40 557 40 571 c 0
 40 594 44 617 49 639 c 0
 59 681 83 720 121 732 c 0
 143 739 152 700 130 693 c 0
 110 687 96 667 88 646 c 1
80 559 m 1
 80 559 l 1
258 601 m 1
 259 601 l 2
 283 603 305 579 300 551 c 0
 297 537 287 528 276 523 c 0
 268 511 257 504 242 508 c 0
 221 513 212 537 216 559 c 0
 216 560 217 561 217 562 c 0
 216 565 216 567 215 570 c 0
 212 575 211 580 212 586 c 0
 210 600 210 614 211 625 c 0
 215 667 232 704 262 730 c 0
 270 738 285 732 290 722 c 0
 296 710 292 698 283 690 c 0
 276 684 268 674 263 664 c 0
 257 652 253 643 251 629 c 0
 250 624 250 619 250 612 c 0
 250 610 250 608 250 605 c 0
 250 605 250 604 250 603 c 0
 252 602 253 601 255 600 c 0
 256 600 258 601 258 601 c 1
EndSplineSet
Validated: 33
EndChar

StartChar: glyph81
Encoding: 259 8221 81
Width: 324
VWidth: 0
Flags: HW
LayerCount: 2
Fore
SplineSet
134.109375 655 m 2
 135.109375 655 l 2
 139.109375 624 137.109375 591 123.109375 564 c 0
 111.109375 541 92.109375 523 69.109375 517 c 0
 59.109375 514 49.109375 521 46.109375 532 c 0
 44.109375 543 49.109375 555 59.109375 558 c 0
 71.109375 561 81.109375 570 88.109375 581 c 0
 96.109375 595 100.109375 609 100.109375 627 c 0
 100.109375 636 98.109375 645 97.109375 654 c 1
 94.109375 650 92.109375 646 88.109375 644 c 0
 76.109375 637 61.109375 639 51.109375 650 c 0
 41.109375 661 38.109375 677 41.109375 693 c 0
 47.109375 722 75.109375 744 99.109375 727 c 0
 102.109375 725 105.109375 722 107.109375 719 c 0
 125.109375 706 131.109375 678 134.109375 655 c 2
276.109375 685 m 1
 282.109375 667 284.109375 646 283.109375 627 c 0
 280.109375 587 265.109375 548 238.109375 521 c 0
 222.109375 504 198.109375 531 214.109375 548 c 0
 230.109375 564 239.109375 584 245.109375 606 c 0
 248.109375 619 250.109375 633 249.109375 647 c 1
 238.109375 643 225.109375 647 216.109375 656 c 0
 215.109375 656 216.109375 656 215.109375 656 c 0
 189.109375 664 187.109375 701 204.109375 720 c 0
 219.109375 736 242.109375 738 258.109375 724 c 0
 268.109375 716 273.109375 704 274.109375 691 c 0
 275.109375 689 275.109375 687 276.109375 685 c 1
EndSplineSet
Validated: 524321
EndChar

StartChar: S
Encoding: 83 83 82
Width: 584
Flags: HW
LayerCount: 2
Fore
SplineSet
543.5078125 200 m 2
 553.5078125 64 429.5078125 6 330.5078125 0 c 0
 217.5078125 -7 108.5078125 51 39.5078125 153 c 0
 24.5078125 174 50.5078125 204 65.5078125 183 c 0
 151.5078125 57 305.5078125 1 435.5078125 71 c 0
 491.5078125 101 520.5078125 161 500.5078125 231 c 0
 482.5078125 297 427.5078125 340 373.5078125 364 c 0
 270.5078125 410 129.5078125 411 56.5078125 521 c 0
 26.5078125 567 26.5078125 622 65.5078125 661 c 0
 102.5078125 698 158.5078125 717 206.5078125 726 c 0
 310.5078125 746 418.5078125 720 505.5078125 652 c 0
 524.5078125 637 507.5078125 601 487.5078125 616 c 0
 381.5078125 699 235.5078125 718 119.5078125 651 c 0
 89.5078125 634 59.5078125 607 76.5078125 565 c 0
 88.5078125 535 115.5078125 512 140.5078125 496 c 0
 196.5078125 459 261.5078125 447 323.5078125 427 c 0
 421.5078125 396 534.5078125 332 543.5078125 200 c 2
EndSplineSet
Validated: 524321
EndChar

StartChar: T
Encoding: 84 84 83
Width: 651
Flags: HW
LayerCount: 2
Fore
SplineSet
595.25 730 m 2
 622.25 730 622.25 687 595.25 687 c 0
 517.25 687 439.25 686 361.25 686 c 1
 376.25 462 368.25 238 337.25 16 c 0
 333.25 -12 293.25 1 297.25 28 c 0
 328.25 246 335.25 466 320.25 686 c 1
 55.25 686 l 2
 28.25 686 28.25 729 55.25 729 c 0
 145.25 729 235.25 729 325.25 729 c 0
 332.25 734 342.25 734 350.25 729 c 2
 595.25 730 l 2
EndSplineSet
Validated: 33
EndChar

StartChar: U
Encoding: 85 85 84
Width: 631
Flags: HW
LayerCount: 2
Fore
SplineSet
545.712890625 681 m 0
 585.712890625 554 598.712890625 419 579.712890625 287 c 0
 564.712890625 180 522.712890625 88 418.712890625 39 c 0
 331.712890625 -2 220.712890625 -24 142.712890625 47 c 0
 61.712890625 121 52.712890625 246 43.712890625 347 c 0
 32.712890625 472 37.712890625 598 57.712890625 721 c 0
 61.712890625 744 96.712890625 734 92.712890625 711 c 0
 70.712890625 573 67.712890625 433 85.712890625 295 c 0
 101.712890625 174 139.712890625 13 300.712890625 38 c 0
 359.712890625 47 421.712890625 72 465.712890625 112 c 0
 512.712890625 154 530.712890625 214 540.712890625 273 c 0
 563.712890625 406 550.712890625 543 510.712890625 672 c 0
 503.712890625 694 538.712890625 703 545.712890625 681 c 0
EndSplineSet
Validated: 524321
EndChar

StartChar: V
Encoding: 86 86 85
Width: 751
Flags: HW
LayerCount: 2
Fore
SplineSet
684.466796875 723 m 0
 699.466796875 741 725.466796875 715 710.466796875 697 c 0
 547.466796875 495 448.466796875 252 352.466796875 13 c 0
 345.466796875 -4 324.466796875 -4 317.466796875 13 c 0
 223.466796875 243 129.466796875 472 35.466796875 702 c 0
 26.466796875 724 61.466796875 734 70.466796875 712 c 0
 158.466796875 497 247.466796875 281 335.466796875 66 c 1
 428.466796875 297 527.466796875 528 684.466796875 723 c 0
EndSplineSet
Validated: 524321
EndChar

StartChar: W
Encoding: 87 87 86
Width: 959
Flags: HW
LayerCount: 2
Fore
SplineSet
887.655273438 721 m 1
 901.655273438 741 934.655273438 722 920.655273438 702 c 0
 775.655273438 504 793.655273438 239 655.655273438 37 c 0
 647.655273438 26 630.655273438 24 622.655273438 37 c 0
 548.655273438 162 503.655273438 300 490.655273438 444 c 1
 419.655273438 299 348.655273438 154 277.655273438 9 c 0
 269.655273438 -7 248.655273438 0 243.655273438 14 c 0
 164.655273438 227 93.6552734375 442 33.6552734375 661 c 0
 27.6552734375 684 64.6552734375 694 70.6552734375 671 c 0
 126.655273438 467 190.655273438 266 263.655273438 67 c 1
 338.655273438 220 413.655273438 373 488.655273438 526 c 0
 496.655273438 544 523.655273438 535 523.655273438 517 c 0
 526.655273438 365 566.655273438 217 639.655273438 84 c 1
 758.655273438 281 749.655273438 531 887.655273438 721 c 1
EndSplineSet
Validated: 524321
EndChar

StartChar: X
Encoding: 88 88 87
Width: 626
Flags: HW
LayerCount: 2
Fore
SplineSet
552.047851562 695 m 2
 552.047851562 696 l 2
 566.047851562 717 602.047851562 697 588.047851562 676 c 0
 511.047851562 562 431.047851562 450 346.047851562 341 c 1
 424.047851562 242 503.047851562 144 581.047851562 45 c 0
 597.047851562 25 560.047851562 6 544.047851562 26 c 0
 469.047851562 120 395.047851562 214 320.047851562 308 c 1
 239.047851562 205 156.047851562 105 69.0478515625 7 c 0
 52.0478515625 -12 22.0478515625 16 39.0478515625 35 c 0
 128.047851562 134 212.047851562 237 294.047851562 341 c 0
 284.047851562 353 275.047851562 365 265.047851562 377 c 0
 185.047851562 479 108.047851562 585 76.0478515625 709 c 0
 70.0478515625 733 110.047851562 743 116.047851562 719 c 0
 148.047851562 594 228.047851562 489 309.047851562 387 c 0
 313.047851562 382 316.047851562 378 320.047851562 373 c 1
 401.047851562 478 478.047851562 585 552.047851562 695 c 2
EndSplineSet
Validated: 524321
EndChar

StartChar: Y
Encoding: 89 89 88
Width: 534
Flags: HW
LayerCount: 2
Fore
SplineSet
462.466796875 725 m 2
 475.466796875 744 507.466796875 727 494.466796875 707 c 0
 427.466796875 606 364.466796875 503 305.466796875 397 c 0
 310.466796875 391 314.466796875 385 319.466796875 379 c 0
 333.466796875 360 301.466796875 342 287.466796875 360 c 0
 286.466796875 361 286.466796875 361 285.466796875 362 c 1
 222.466796875 247 164.466796875 130 112.466796875 10 c 0
 103.466796875 -11 72.466796875 7 81.466796875 28 c 0
 135.466796875 153 195.466796875 275 261.466796875 394 c 0
 186.466796875 493 111.466796875 593 36.466796875 692 c 0
 22.466796875 711 54.466796875 728 68.466796875 710 c 0
 139.466796875 616 210.466796875 523 281.466796875 429 c 1
 338.466796875 530 397.466796875 629 462.466796875 725 c 2
EndSplineSet
Validated: 524321
EndChar

StartChar: Z
Encoding: 90 90 89
Width: 669
Flags: HW
LayerCount: 2
Fore
SplineSet
611.8984375 83 m 0
 638.8984375 81 639.8984375 37 611.8984375 39 c 0
 427.8984375 51 242.8984375 39 61.8984375 1 c 0
 36.8984375 -4 26.8984375 26 45.8984375 41 c 0
 193.8984375 155 326.8984375 288 442.8984375 437 c 0
 472.8984375 475 500.8984375 515 527.8984375 555 c 0
 549.8984375 588 611.8984375 670 541.8984375 687 c 0
 514.8984375 693 485.8984375 685 459.8984375 681 c 0
 433.8984375 677 406.8984375 671 380.8984375 667 c 0
 327.8984375 658 274.8984375 649 221.8984375 640 c 0
 194.8984375 635 183.8984375 677 210.8984375 682 c 0
 276.8984375 693 342.8984375 705 408.8984375 716 c 0
 457.8984375 724 518.8984375 745 566.8984375 724 c 0
 678.8984375 676 573.8984375 544 531.8984375 485 c 0
 417.8984375 326 285.8984375 183 136.8984375 59 c 1
 293.8984375 85 452.8984375 94 611.8984375 83 c 0
EndSplineSet
Validated: 524321
EndChar

StartChar: bracketleft
Encoding: 91 91 90
Width: 261
Flags: HW
LayerCount: 2
Fore
SplineSet
205.16015625 -159 m 2
 228.16015625 -153 238.16015625 -189 215.16015625 -195 c 0
 143.16015625 -214 61.16015625 -211 46.16015625 -119 c 0
 38.16015625 -68 44.16015625 -12 44.16015625 40 c 0
 44.16015625 101 45.16015625 161 46.16015625 222 c 0
 48.16015625 346 51.16015625 470 56.16015625 594 c 0
 57.16015625 631 58.16015625 675 84.16015625 705 c 0
 109.16015625 734 148.16015625 735 183.16015625 733 c 0
 206.16015625 732 206.16015625 694 183.16015625 695 c 0
 164.16015625 696 140.16015625 699 122.16015625 688 c 0
 101.16015625 675 96.16015625 649 94.16015625 626 c 0
 90.16015625 585 90.16015625 544 89.16015625 503 c 0
 86.16015625 414 83.16015625 326 82.16015625 237 c 0
 80.16015625 146 80.16015625 55 80.16015625 -36 c 0
 80.16015625 -71 73.16015625 -123 97.16015625 -151 c 0
 123.16015625 -181 173.16015625 -167 205.16015625 -159 c 2
EndSplineSet
Validated: 524321
EndChar

StartChar: backslash
Encoding: 92 92 91
Width: 297
Flags: HW
LayerCount: 2
Fore
SplineSet
261.177734375 23 m 2
 268.177734375 0 232.177734375 -10 225.177734375 13 c 0
 152.177734375 242 63.177734375 474 34.177734375 715 c 0
 31.177734375 739 67.177734375 739 70.177734375 715 c 0
 84.177734375 597 117.177734375 482 152.177734375 368 c 0
 187.177734375 253 225.177734375 138 261.177734375 23 c 2
EndSplineSet
Validated: 524321
EndChar

StartChar: bracketright
Encoding: 93 93 92
Width: 271
Flags: HW
LayerCount: 2
Fore
SplineSet
225.49609375 632 m 2
 224.49609375 632 l 2
 230.49609375 575 226.49609375 515 225.49609375 458 c 0
 224.49609375 396 222.49609375 334 219.49609375 272 c 0
 213.49609375 145 205.49609375 17 193.49609375 -109 c 0
 189.49609375 -144 187.49609375 -181 152.49609375 -197 c 0
 113.49609375 -215 73.49609375 -193 40.49609375 -171 c 0
 20.49609375 -158 39.49609375 -126 59.49609375 -139 c 0
 77.49609375 -151 106.49609375 -173 129.49609375 -165 c 0
 156.49609375 -156 155.49609375 -127 157.49609375 -102 c 0
 161.49609375 -60 165.49609375 -17 168.49609375 25 c 0
 175.49609375 112 179.49609375 199 183.49609375 286 c 0
 187.49609375 376 190.49609375 466 190.49609375 556 c 0
 190.49609375 591 196.49609375 637 177.49609375 668 c 0
 154.49609375 707 101.49609375 695 66.49609375 686 c 0
 43.49609375 680 33.49609375 716 56.49609375 722 c 0
 93.49609375 731 137.49609375 741 173.49609375 722 c 0
 207.49609375 704 221.49609375 669 225.49609375 632 c 2
EndSplineSet
Validated: 524321
EndChar

StartChar: underscore
Encoding: 95 95 93
Width: 709
Flags: HW
LayerCount: 2
Fore
SplineSet
634.5 -149 m 0
 656.5 -148 656.5 -184 634.5 -185 c 0
 446.5 -192 260.5 -193 72.5 -186 c 0
 50.5 -185 50.5 -149 72.5 -150 c 0
 260.5 -157 446.5 -156 634.5 -149 c 0
EndSplineSet
Validated: 33
EndChar

StartChar: a
Encoding: 97 97 94
Width: 568
Flags: HW
LayerCount: 2
Fore
SplineSet
512.715820312 47 m 0
 538.715820312 48 538.715820312 1 512.715820312 0 c 0
 442.715820312 -4 416.715820312 69 406.715820312 138 c 1
 405.715820312 136 403.715820312 134 402.715820312 132 c 0
 346.715820312 54 256.715820312 10 169.715820312 34 c 0
 89.7158203125 56 29.7158203125 145 37.7158203125 240 c 0
 41.7158203125 289 65.7158203125 331 94.7158203125 365 c 0
 126.715820312 403 163.715820312 438 201.715820312 468 c 0
 273.715820312 525 370.715820312 557 449.715820312 504 c 1
 460.715820312 522 485.715820312 519 486.715820312 493 c 0
 489.715820312 393 479.715820312 289 440.715820312 200 c 0
 441.715820312 134 452.715820312 44 512.715820312 47 c 0
228.715820312 74 m 2
 228.715820312 75 l 2
 303.715820312 79 364.715820312 138 400.715820312 211 c 0
 398.715820312 296 409.715820312 381 433.715820312 461 c 0
 353.715820312 517 261.715820312 465 195.715820312 405 c 0
 143.715820312 357 68.7158203125 296 77.7158203125 209 c 0
 86.7158203125 123 156.715820312 70 228.715820312 74 c 2
EndSplineSet
Validated: 524321
EndChar

StartChar: b
Encoding: 98 98 95
Width: 531
Flags: HW
LayerCount: 2
Fore
SplineSet
485.694335938 288 m 1
 485.694335938 289 l 1
 500.694335938 191 460.694335938 96 381.694335938 55 c 0
 290.694335938 8 192.694335938 38 102.694335938 73 c 1
 103.694335938 56 102.694335938 39 103.694335938 22 c 0
 104.694335938 2 77.6943359375 -9 70.6943359375 11 c 0
 38.6943359375 97 31.6943359375 195 58.6943359375 281 c 0
 53.6943359375 425 47.6943359375 569 42.6943359375 713 c 0
 41.6943359375 741 78.6943359375 740 79.6943359375 713 c 0
 83.6943359375 594 87.6943359375 473 91.6943359375 354 c 1
 93.6943359375 357 94.6943359375 360 96.6943359375 363 c 0
 148.694335938 441 232.694335938 486 317.694335938 470 c 0
 399.694335938 454 470.694335938 385 485.694335938 288 c 1
399.694335938 116 m 0
 474.694335938 184 465.694335938 323 392.694335938 388 c 0
 317.694335938 456 211.694335938 438 145.694335938 363 c 0
 122.694335938 336 105.694335938 306 94.6943359375 272 c 0
 96.6943359375 221 98.6943359375 170 100.694335938 119 c 0
 193.694335938 82 312.694335938 37 399.694335938 116 c 0
EndSplineSet
Validated: 524321
EndChar

StartChar: c
Encoding: 99 99 96
Width: 518
Flags: HW
LayerCount: 2
Fore
SplineSet
438.665039062 181 m 0
 438.665039062 209 479.665039062 209 479.665039062 181 c 0
 479.665039062 127 444.665039062 85 402.665039062 60 c 0
 357.665039062 33 302.665039062 7 251.665039062 1 c 0
 164.665039062 -9 90.6650390625 59 58.6650390625 140 c 0
 29.6650390625 213 31.6650390625 297 61.6650390625 370 c 0
 125.665039062 527 322.665039062 579 452.665039062 482 c 0
 473.665039062 466 453.665039062 428 431.665039062 444 c 0
 372.665039062 488 298.665039062 499 230.665039062 477 c 0
 106.665039062 436 46.6650390625 282 96.6650390625 156 c 0
 124.665039062 87 186.665039062 32 260.665039062 47 c 0
 299.665039062 55 340.665039062 74 375.665039062 94 c 0
 407.665039062 112 438.665039062 139 438.665039062 181 c 0
EndSplineSet
Validated: 524321
EndChar

